<mxfile host="app.diagrams.net" modified="2023-04-04T23:57:39.688Z" agent="Mozilla/5.0 (Windows NT 10.0; Win64; x64) AppleWebKit/537.36 (KHTML, like Gecko) Chrome/111.0.0.0 Safari/537.36" etag="TD6ReBVAi-Zp6UydLqOi" version="21.1.4" type="google">
  <diagram name="Page-1" id="wTXkZAzIEke7R5vGnhOi">
    <mxGraphModel grid="1" page="1" gridSize="10" guides="1" tooltips="1" connect="1" arrows="1" fold="1" pageScale="1" pageWidth="850" pageHeight="1100" math="0" shadow="0">
      <root>
        <mxCell id="0" />
        <mxCell id="1" parent="0" />
        <mxCell id="LtiFozr3K5Bf2lxsZp5m-28" style="edgeStyle=orthogonalEdgeStyle;rounded=0;orthogonalLoop=1;jettySize=auto;html=1;fontFamily=Verdana;fontSize=18;" edge="1" parent="1" source="LtiFozr3K5Bf2lxsZp5m-1" target="LtiFozr3K5Bf2lxsZp5m-26">
          <mxGeometry relative="1" as="geometry" />
        </mxCell>
        <mxCell id="LtiFozr3K5Bf2lxsZp5m-1" value="1" style="ellipse;whiteSpace=wrap;html=1;aspect=fixed;fontSize=18;fontStyle=1" vertex="1" parent="1">
          <mxGeometry x="-700" y="160" width="50" height="50" as="geometry" />
        </mxCell>
        <mxCell id="LtiFozr3K5Bf2lxsZp5m-29" style="edgeStyle=orthogonalEdgeStyle;rounded=0;orthogonalLoop=1;jettySize=auto;html=1;entryX=0.5;entryY=0;entryDx=0;entryDy=0;fontFamily=Verdana;fontSize=18;" edge="1" parent="1" source="LtiFozr3K5Bf2lxsZp5m-2" target="LtiFozr3K5Bf2lxsZp5m-27">
          <mxGeometry relative="1" as="geometry" />
        </mxCell>
        <mxCell id="LtiFozr3K5Bf2lxsZp5m-2" value="3" style="ellipse;whiteSpace=wrap;html=1;aspect=fixed;fontSize=18;fontStyle=1" vertex="1" parent="1">
          <mxGeometry x="-620" y="160" width="50" height="50" as="geometry" />
        </mxCell>
        <mxCell id="LtiFozr3K5Bf2lxsZp5m-3" value="." style="ellipse;whiteSpace=wrap;html=1;aspect=fixed;fontSize=18;fontStyle=1" vertex="1" parent="1">
          <mxGeometry x="-540" y="160" width="50" height="50" as="geometry" />
        </mxCell>
        <mxCell id="LtiFozr3K5Bf2lxsZp5m-88" style="edgeStyle=orthogonalEdgeStyle;rounded=0;orthogonalLoop=1;jettySize=auto;html=1;entryX=0.5;entryY=0;entryDx=0;entryDy=0;fontFamily=Verdana;fontSize=18;" edge="1" parent="1" source="LtiFozr3K5Bf2lxsZp5m-8" target="LtiFozr3K5Bf2lxsZp5m-67">
          <mxGeometry relative="1" as="geometry" />
        </mxCell>
        <mxCell id="LtiFozr3K5Bf2lxsZp5m-8" value="2" style="ellipse;whiteSpace=wrap;html=1;aspect=fixed;fontSize=18;fontStyle=1" vertex="1" parent="1">
          <mxGeometry x="-460" y="160" width="50" height="50" as="geometry" />
        </mxCell>
        <mxCell id="LtiFozr3K5Bf2lxsZp5m-89" style="edgeStyle=orthogonalEdgeStyle;rounded=0;orthogonalLoop=1;jettySize=auto;html=1;entryX=0.5;entryY=0;entryDx=0;entryDy=0;fontFamily=Verdana;fontSize=18;" edge="1" parent="1" source="LtiFozr3K5Bf2lxsZp5m-9" target="LtiFozr3K5Bf2lxsZp5m-68">
          <mxGeometry relative="1" as="geometry" />
        </mxCell>
        <mxCell id="LtiFozr3K5Bf2lxsZp5m-9" value="3" style="ellipse;whiteSpace=wrap;html=1;aspect=fixed;fontSize=18;fontStyle=1" vertex="1" parent="1">
          <mxGeometry x="-380" y="160" width="50" height="50" as="geometry" />
        </mxCell>
        <mxCell id="LtiFozr3K5Bf2lxsZp5m-92" style="edgeStyle=orthogonalEdgeStyle;rounded=0;orthogonalLoop=1;jettySize=auto;html=1;fontFamily=Verdana;fontSize=18;" edge="1" parent="1" source="LtiFozr3K5Bf2lxsZp5m-10">
          <mxGeometry relative="1" as="geometry">
            <mxPoint x="-275.0000000000002" y="250" as="targetPoint" />
          </mxGeometry>
        </mxCell>
        <mxCell id="LtiFozr3K5Bf2lxsZp5m-10" value="+" style="ellipse;whiteSpace=wrap;html=1;aspect=fixed;fontSize=18;fontStyle=1" vertex="1" parent="1">
          <mxGeometry x="-300" y="160" width="50" height="50" as="geometry" />
        </mxCell>
        <mxCell id="LtiFozr3K5Bf2lxsZp5m-11" value="c" style="ellipse;whiteSpace=wrap;html=1;aspect=fixed;fontSize=18;fontStyle=1" vertex="1" parent="1">
          <mxGeometry x="-220" y="160" width="50" height="50" as="geometry" />
        </mxCell>
        <mxCell id="LtiFozr3K5Bf2lxsZp5m-105" style="edgeStyle=orthogonalEdgeStyle;rounded=0;orthogonalLoop=1;jettySize=auto;html=1;entryX=0.5;entryY=0;entryDx=0;entryDy=0;fontFamily=Verdana;fontSize=18;" edge="1" parent="1" source="LtiFozr3K5Bf2lxsZp5m-12" target="LtiFozr3K5Bf2lxsZp5m-99">
          <mxGeometry relative="1" as="geometry" />
        </mxCell>
        <mxCell id="LtiFozr3K5Bf2lxsZp5m-12" value="o" style="ellipse;whiteSpace=wrap;html=1;aspect=fixed;fontSize=18;fontStyle=1" vertex="1" parent="1">
          <mxGeometry x="-140" y="160" width="50" height="50" as="geometry" />
        </mxCell>
        <mxCell id="LtiFozr3K5Bf2lxsZp5m-106" style="edgeStyle=orthogonalEdgeStyle;rounded=0;orthogonalLoop=1;jettySize=auto;html=1;fontFamily=Verdana;fontSize=18;" edge="1" parent="1" source="LtiFozr3K5Bf2lxsZp5m-13" target="LtiFozr3K5Bf2lxsZp5m-100">
          <mxGeometry relative="1" as="geometry" />
        </mxCell>
        <mxCell id="LtiFozr3K5Bf2lxsZp5m-13" value="s" style="ellipse;whiteSpace=wrap;html=1;aspect=fixed;fontSize=18;fontStyle=1" vertex="1" parent="1">
          <mxGeometry x="-60" y="160" width="50" height="50" as="geometry" />
        </mxCell>
        <mxCell id="LtiFozr3K5Bf2lxsZp5m-169" style="edgeStyle=orthogonalEdgeStyle;rounded=0;orthogonalLoop=1;jettySize=auto;html=1;entryX=0.5;entryY=0;entryDx=0;entryDy=0;fontFamily=Verdana;fontSize=18;" edge="1" parent="1" source="LtiFozr3K5Bf2lxsZp5m-14" target="LtiFozr3K5Bf2lxsZp5m-168">
          <mxGeometry relative="1" as="geometry">
            <Array as="points">
              <mxPoint x="45" y="900" />
              <mxPoint x="205" y="900" />
            </Array>
          </mxGeometry>
        </mxCell>
        <mxCell id="LtiFozr3K5Bf2lxsZp5m-14" value="(" style="ellipse;whiteSpace=wrap;html=1;aspect=fixed;fontSize=18;fontStyle=1" vertex="1" parent="1">
          <mxGeometry x="20" y="160" width="50" height="50" as="geometry" />
        </mxCell>
        <mxCell id="LtiFozr3K5Bf2lxsZp5m-15" value="x" style="ellipse;whiteSpace=wrap;html=1;aspect=fixed;fontSize=18;fontStyle=1" vertex="1" parent="1">
          <mxGeometry x="100" y="160" width="50" height="50" as="geometry" />
        </mxCell>
        <mxCell id="LtiFozr3K5Bf2lxsZp5m-16" value="+" style="ellipse;whiteSpace=wrap;html=1;aspect=fixed;fontSize=18;fontStyle=1" vertex="1" parent="1">
          <mxGeometry x="180" y="160" width="50" height="50" as="geometry" />
        </mxCell>
        <mxCell id="LtiFozr3K5Bf2lxsZp5m-19" value="z" style="ellipse;whiteSpace=wrap;html=1;aspect=fixed;fontSize=18;fontStyle=1" vertex="1" parent="1">
          <mxGeometry x="260" y="160" width="50" height="50" as="geometry" />
        </mxCell>
        <mxCell id="LtiFozr3K5Bf2lxsZp5m-170" style="edgeStyle=orthogonalEdgeStyle;rounded=0;orthogonalLoop=1;jettySize=auto;html=1;entryX=0.5;entryY=0;entryDx=0;entryDy=0;fontFamily=Verdana;fontSize=18;" edge="1" parent="1" source="LtiFozr3K5Bf2lxsZp5m-20" target="LtiFozr3K5Bf2lxsZp5m-168">
          <mxGeometry relative="1" as="geometry">
            <Array as="points">
              <mxPoint x="365" y="900" />
              <mxPoint x="205" y="900" />
            </Array>
          </mxGeometry>
        </mxCell>
        <mxCell id="LtiFozr3K5Bf2lxsZp5m-20" value=")" style="ellipse;whiteSpace=wrap;html=1;aspect=fixed;fontSize=18;fontStyle=1" vertex="1" parent="1">
          <mxGeometry x="340" y="160" width="50" height="50" as="geometry" />
        </mxCell>
        <mxCell id="LtiFozr3K5Bf2lxsZp5m-21" value="^" style="ellipse;whiteSpace=wrap;html=1;aspect=fixed;fontSize=18;fontStyle=1" vertex="1" parent="1">
          <mxGeometry x="420" y="160" width="50" height="50" as="geometry" />
        </mxCell>
        <mxCell id="LtiFozr3K5Bf2lxsZp5m-22" value="2" style="ellipse;whiteSpace=wrap;html=1;aspect=fixed;fontSize=18;fontStyle=1" vertex="1" parent="1">
          <mxGeometry x="500" y="160" width="50" height="50" as="geometry" />
        </mxCell>
        <mxCell id="LtiFozr3K5Bf2lxsZp5m-23" value=")" style="ellipse;whiteSpace=wrap;html=1;aspect=fixed;fontSize=18;fontStyle=1" vertex="1" parent="1">
          <mxGeometry x="580" y="160" width="50" height="50" as="geometry" />
        </mxCell>
        <mxCell id="LtiFozr3K5Bf2lxsZp5m-24" value="(" style="ellipse;whiteSpace=wrap;html=1;aspect=fixed;fontSize=18;fontStyle=1" vertex="1" parent="1">
          <mxGeometry x="-780" y="160" width="50" height="50" as="geometry" />
        </mxCell>
        <mxCell id="LtiFozr3K5Bf2lxsZp5m-32" style="edgeStyle=orthogonalEdgeStyle;rounded=0;orthogonalLoop=1;jettySize=auto;html=1;entryX=0.5;entryY=0;entryDx=0;entryDy=0;fontFamily=Verdana;fontSize=18;" edge="1" parent="1" source="LtiFozr3K5Bf2lxsZp5m-26" target="LtiFozr3K5Bf2lxsZp5m-30">
          <mxGeometry relative="1" as="geometry" />
        </mxCell>
        <mxCell id="LtiFozr3K5Bf2lxsZp5m-26" value="D" style="ellipse;whiteSpace=wrap;html=1;aspect=fixed;fontSize=18;fontStyle=1" vertex="1" parent="1">
          <mxGeometry x="-700" y="250" width="50" height="50" as="geometry" />
        </mxCell>
        <mxCell id="LtiFozr3K5Bf2lxsZp5m-27" value="D" style="ellipse;whiteSpace=wrap;html=1;aspect=fixed;fontSize=18;fontStyle=1" vertex="1" parent="1">
          <mxGeometry x="-620" y="250" width="50" height="50" as="geometry" />
        </mxCell>
        <mxCell id="LtiFozr3K5Bf2lxsZp5m-30" value="I" style="ellipse;whiteSpace=wrap;html=1;aspect=fixed;fontSize=18;fontStyle=1" vertex="1" parent="1">
          <mxGeometry x="-700" y="320" width="50" height="50" as="geometry" />
        </mxCell>
        <mxCell id="LtiFozr3K5Bf2lxsZp5m-31" value="I" style="ellipse;whiteSpace=wrap;html=1;aspect=fixed;fontSize=18;fontStyle=1" vertex="1" parent="1">
          <mxGeometry x="-650" y="400" width="50" height="50" as="geometry" />
        </mxCell>
        <mxCell id="LtiFozr3K5Bf2lxsZp5m-34" value="" style="endArrow=classic;html=1;rounded=0;fontFamily=Verdana;fontSize=18;exitX=0.5;exitY=1;exitDx=0;exitDy=0;entryX=0.5;entryY=0;entryDx=0;entryDy=0;" edge="1" parent="1" source="LtiFozr3K5Bf2lxsZp5m-27" target="LtiFozr3K5Bf2lxsZp5m-31">
          <mxGeometry width="50" height="50" relative="1" as="geometry">
            <mxPoint x="-730" y="400" as="sourcePoint" />
            <mxPoint x="-680" y="350" as="targetPoint" />
          </mxGeometry>
        </mxCell>
        <mxCell id="LtiFozr3K5Bf2lxsZp5m-35" value="" style="endArrow=classic;html=1;rounded=0;fontFamily=Verdana;fontSize=18;entryX=0.5;entryY=0;entryDx=0;entryDy=0;exitX=0.5;exitY=1;exitDx=0;exitDy=0;" edge="1" parent="1" source="LtiFozr3K5Bf2lxsZp5m-30" target="LtiFozr3K5Bf2lxsZp5m-31">
          <mxGeometry width="50" height="50" relative="1" as="geometry">
            <mxPoint x="-730" y="400" as="sourcePoint" />
            <mxPoint x="-680" y="350" as="targetPoint" />
          </mxGeometry>
        </mxCell>
        <mxCell id="LtiFozr3K5Bf2lxsZp5m-36" value="&lt;font style=&quot;font-size: 18px;&quot;&gt;30&lt;/font&gt;" style="text;html=1;align=center;verticalAlign=middle;resizable=0;points=[];autosize=1;strokeColor=none;fillColor=none;fontSize=18;fontFamily=Verdana;" vertex="1" parent="1">
          <mxGeometry x="-715" y="200" width="50" height="40" as="geometry" />
        </mxCell>
        <mxCell id="LtiFozr3K5Bf2lxsZp5m-37" value="&lt;font style=&quot;font-size: 18px;&quot;&gt;30&lt;/font&gt;" style="text;html=1;align=center;verticalAlign=middle;resizable=0;points=[];autosize=1;strokeColor=none;fillColor=none;fontSize=18;fontFamily=Verdana;" vertex="1" parent="1">
          <mxGeometry x="-635" y="200" width="50" height="40" as="geometry" />
        </mxCell>
        <mxCell id="LtiFozr3K5Bf2lxsZp5m-38" value="&lt;font style=&quot;font-size: 18px;&quot;&gt;23&lt;/font&gt;" style="text;html=1;align=center;verticalAlign=middle;resizable=0;points=[];autosize=1;strokeColor=none;fillColor=none;fontSize=18;fontFamily=Verdana;" vertex="1" parent="1">
          <mxGeometry x="-725" y="280" width="50" height="40" as="geometry" />
        </mxCell>
        <mxCell id="LtiFozr3K5Bf2lxsZp5m-39" value="&lt;font style=&quot;font-size: 18px;&quot;&gt;24&lt;/font&gt;" style="text;html=1;align=center;verticalAlign=middle;resizable=0;points=[];autosize=1;strokeColor=none;fillColor=none;fontSize=18;fontFamily=Verdana;" vertex="1" parent="1">
          <mxGeometry x="-655" y="350" width="50" height="40" as="geometry" />
        </mxCell>
        <mxCell id="LtiFozr3K5Bf2lxsZp5m-52" value="" style="endArrow=classic;html=1;rounded=0;fontFamily=Verdana;fontSize=18;entryX=0.5;entryY=0;entryDx=0;entryDy=0;exitX=0.5;exitY=1;exitDx=0;exitDy=0;" edge="1" parent="1" source="LtiFozr3K5Bf2lxsZp5m-31" target="LtiFozr3K5Bf2lxsZp5m-76">
          <mxGeometry width="50" height="50" relative="1" as="geometry">
            <mxPoint x="-665" y="380" as="sourcePoint" />
            <mxPoint x="-565" y="479.9999999999998" as="targetPoint" />
          </mxGeometry>
        </mxCell>
        <mxCell id="LtiFozr3K5Bf2lxsZp5m-54" value="" style="endArrow=classic;html=1;rounded=0;fontFamily=Verdana;fontSize=18;exitX=0.5;exitY=1;exitDx=0;exitDy=0;entryX=0.5;entryY=0;entryDx=0;entryDy=0;" edge="1" parent="1" source="LtiFozr3K5Bf2lxsZp5m-3" target="LtiFozr3K5Bf2lxsZp5m-76">
          <mxGeometry width="50" height="50" relative="1" as="geometry">
            <mxPoint x="-490" y="350" as="sourcePoint" />
            <mxPoint x="-565" y="479.9999999999998" as="targetPoint" />
          </mxGeometry>
        </mxCell>
        <mxCell id="LtiFozr3K5Bf2lxsZp5m-66" style="edgeStyle=orthogonalEdgeStyle;rounded=0;orthogonalLoop=1;jettySize=auto;html=1;entryX=0.5;entryY=0;entryDx=0;entryDy=0;fontFamily=Verdana;fontSize=18;" edge="1" parent="1" source="LtiFozr3K5Bf2lxsZp5m-67" target="LtiFozr3K5Bf2lxsZp5m-69">
          <mxGeometry relative="1" as="geometry" />
        </mxCell>
        <mxCell id="LtiFozr3K5Bf2lxsZp5m-67" value="D" style="ellipse;whiteSpace=wrap;html=1;aspect=fixed;fontSize=18;fontStyle=1" vertex="1" parent="1">
          <mxGeometry x="-460" y="250" width="50" height="50" as="geometry" />
        </mxCell>
        <mxCell id="LtiFozr3K5Bf2lxsZp5m-68" value="D" style="ellipse;whiteSpace=wrap;html=1;aspect=fixed;fontSize=18;fontStyle=1" vertex="1" parent="1">
          <mxGeometry x="-380" y="250" width="50" height="50" as="geometry" />
        </mxCell>
        <mxCell id="LtiFozr3K5Bf2lxsZp5m-69" value="I" style="ellipse;whiteSpace=wrap;html=1;aspect=fixed;fontSize=18;fontStyle=1" vertex="1" parent="1">
          <mxGeometry x="-460" y="320" width="50" height="50" as="geometry" />
        </mxCell>
        <mxCell id="LtiFozr3K5Bf2lxsZp5m-70" value="I" style="ellipse;whiteSpace=wrap;html=1;aspect=fixed;fontSize=18;fontStyle=1" vertex="1" parent="1">
          <mxGeometry x="-450" y="410" width="50" height="50" as="geometry" />
        </mxCell>
        <mxCell id="LtiFozr3K5Bf2lxsZp5m-71" value="" style="endArrow=classic;html=1;rounded=0;fontFamily=Verdana;fontSize=18;exitX=0.5;exitY=1;exitDx=0;exitDy=0;entryX=0.5;entryY=0;entryDx=0;entryDy=0;" edge="1" parent="1" source="LtiFozr3K5Bf2lxsZp5m-68" target="LtiFozr3K5Bf2lxsZp5m-70">
          <mxGeometry width="50" height="50" relative="1" as="geometry">
            <mxPoint x="-490" y="400" as="sourcePoint" />
            <mxPoint x="-440" y="350" as="targetPoint" />
          </mxGeometry>
        </mxCell>
        <mxCell id="LtiFozr3K5Bf2lxsZp5m-72" value="" style="endArrow=classic;html=1;rounded=0;fontFamily=Verdana;fontSize=18;entryX=0.5;entryY=0;entryDx=0;entryDy=0;exitX=0.5;exitY=1;exitDx=0;exitDy=0;" edge="1" parent="1" source="LtiFozr3K5Bf2lxsZp5m-69" target="LtiFozr3K5Bf2lxsZp5m-70">
          <mxGeometry width="50" height="50" relative="1" as="geometry">
            <mxPoint x="-490" y="400" as="sourcePoint" />
            <mxPoint x="-440" y="350" as="targetPoint" />
          </mxGeometry>
        </mxCell>
        <mxCell id="LtiFozr3K5Bf2lxsZp5m-73" value="&lt;font style=&quot;font-size: 18px;&quot;&gt;23&lt;/font&gt;" style="text;html=1;align=center;verticalAlign=middle;resizable=0;points=[];autosize=1;strokeColor=none;fillColor=none;fontSize=18;fontFamily=Verdana;" vertex="1" parent="1">
          <mxGeometry x="-485" y="280" width="50" height="40" as="geometry" />
        </mxCell>
        <mxCell id="LtiFozr3K5Bf2lxsZp5m-74" value="&lt;font style=&quot;font-size: 18px;&quot;&gt;24&lt;/font&gt;" style="text;html=1;align=center;verticalAlign=middle;resizable=0;points=[];autosize=1;strokeColor=none;fillColor=none;fontSize=18;fontFamily=Verdana;" vertex="1" parent="1">
          <mxGeometry x="-415" y="370" width="50" height="40" as="geometry" />
        </mxCell>
        <mxCell id="LtiFozr3K5Bf2lxsZp5m-75" style="edgeStyle=orthogonalEdgeStyle;rounded=0;orthogonalLoop=1;jettySize=auto;html=1;entryX=0.5;entryY=0;entryDx=0;entryDy=0;fontFamily=Verdana;fontSize=18;" edge="1" parent="1" source="LtiFozr3K5Bf2lxsZp5m-76" target="LtiFozr3K5Bf2lxsZp5m-80">
          <mxGeometry relative="1" as="geometry" />
        </mxCell>
        <mxCell id="LtiFozr3K5Bf2lxsZp5m-76" value="R" style="ellipse;whiteSpace=wrap;html=1;aspect=fixed;fontSize=18;fontStyle=1" vertex="1" parent="1">
          <mxGeometry x="-550" y="490" width="50" height="50" as="geometry" />
        </mxCell>
        <mxCell id="LtiFozr3K5Bf2lxsZp5m-77" value="" style="endArrow=classic;html=1;rounded=0;fontFamily=Verdana;fontSize=18;entryX=0.5;entryY=0;entryDx=0;entryDy=0;exitX=0.5;exitY=1;exitDx=0;exitDy=0;" edge="1" parent="1" source="LtiFozr3K5Bf2lxsZp5m-70" target="LtiFozr3K5Bf2lxsZp5m-76">
          <mxGeometry width="50" height="50" relative="1" as="geometry">
            <mxPoint x="-445.0000000000002" y="450" as="sourcePoint" />
            <mxPoint x="-435" y="410" as="targetPoint" />
          </mxGeometry>
        </mxCell>
        <mxCell id="LtiFozr3K5Bf2lxsZp5m-79" style="edgeStyle=orthogonalEdgeStyle;rounded=0;orthogonalLoop=1;jettySize=auto;html=1;fontFamily=Verdana;fontSize=18;" edge="1" parent="1" source="LtiFozr3K5Bf2lxsZp5m-80" target="LtiFozr3K5Bf2lxsZp5m-82">
          <mxGeometry relative="1" as="geometry" />
        </mxCell>
        <mxCell id="LtiFozr3K5Bf2lxsZp5m-80" value="H" style="ellipse;whiteSpace=wrap;html=1;aspect=fixed;fontSize=18;fontStyle=1" vertex="1" parent="1">
          <mxGeometry x="-550" y="560" width="50" height="50" as="geometry" />
        </mxCell>
        <mxCell id="LtiFozr3K5Bf2lxsZp5m-81" style="edgeStyle=orthogonalEdgeStyle;rounded=0;orthogonalLoop=1;jettySize=auto;html=1;entryX=0.5;entryY=0;entryDx=0;entryDy=0;fontFamily=Verdana;fontSize=18;" edge="1" parent="1" source="LtiFozr3K5Bf2lxsZp5m-82" target="LtiFozr3K5Bf2lxsZp5m-84">
          <mxGeometry relative="1" as="geometry" />
        </mxCell>
        <mxCell id="LtiFozr3K5Bf2lxsZp5m-82" value="U" style="ellipse;whiteSpace=wrap;html=1;aspect=fixed;fontSize=18;fontStyle=1" vertex="1" parent="1">
          <mxGeometry x="-550" y="630" width="50" height="50" as="geometry" />
        </mxCell>
        <mxCell id="LtiFozr3K5Bf2lxsZp5m-83" style="edgeStyle=orthogonalEdgeStyle;rounded=0;orthogonalLoop=1;jettySize=auto;html=1;entryX=0.5;entryY=0;entryDx=0;entryDy=0;fontFamily=Verdana;fontSize=18;" edge="1" parent="1" source="LtiFozr3K5Bf2lxsZp5m-84" target="LtiFozr3K5Bf2lxsZp5m-86">
          <mxGeometry relative="1" as="geometry" />
        </mxCell>
        <mxCell id="LtiFozr3K5Bf2lxsZp5m-84" value="T" style="ellipse;whiteSpace=wrap;html=1;aspect=fixed;fontSize=18;fontStyle=1" vertex="1" parent="1">
          <mxGeometry x="-550" y="700" width="50" height="50" as="geometry" />
        </mxCell>
        <mxCell id="LtiFozr3K5Bf2lxsZp5m-86" value="A" style="ellipse;whiteSpace=wrap;html=1;aspect=fixed;fontSize=18;fontStyle=1" vertex="1" parent="1">
          <mxGeometry x="-550" y="770" width="50" height="50" as="geometry" />
        </mxCell>
        <mxCell id="LtiFozr3K5Bf2lxsZp5m-90" value="&lt;font style=&quot;font-size: 18px;&quot;&gt;30&lt;/font&gt;" style="text;html=1;align=center;verticalAlign=middle;resizable=0;points=[];autosize=1;strokeColor=none;fillColor=none;fontSize=18;fontFamily=Verdana;" vertex="1" parent="1">
          <mxGeometry x="-475" y="210" width="50" height="40" as="geometry" />
        </mxCell>
        <mxCell id="LtiFozr3K5Bf2lxsZp5m-91" value="&lt;font style=&quot;font-size: 18px;&quot;&gt;30&lt;/font&gt;" style="text;html=1;align=center;verticalAlign=middle;resizable=0;points=[];autosize=1;strokeColor=none;fillColor=none;fontSize=18;fontFamily=Verdana;" vertex="1" parent="1">
          <mxGeometry x="-395" y="210" width="50" height="40" as="geometry" />
        </mxCell>
        <mxCell id="LtiFozr3K5Bf2lxsZp5m-93" value="Z" style="ellipse;whiteSpace=wrap;html=1;aspect=fixed;fontSize=18;fontStyle=1" vertex="1" parent="1">
          <mxGeometry x="-300" y="250" width="50" height="50" as="geometry" />
        </mxCell>
        <mxCell id="LtiFozr3K5Bf2lxsZp5m-101" style="edgeStyle=orthogonalEdgeStyle;rounded=0;orthogonalLoop=1;jettySize=auto;html=1;fontFamily=Verdana;fontSize=18;" edge="1" parent="1" source="LtiFozr3K5Bf2lxsZp5m-94" target="LtiFozr3K5Bf2lxsZp5m-98">
          <mxGeometry relative="1" as="geometry" />
        </mxCell>
        <mxCell id="LtiFozr3K5Bf2lxsZp5m-94" value="L" style="ellipse;whiteSpace=wrap;html=1;aspect=fixed;fontSize=18;fontStyle=1" vertex="1" parent="1">
          <mxGeometry x="-220" y="250" width="50" height="50" as="geometry" />
        </mxCell>
        <mxCell id="LtiFozr3K5Bf2lxsZp5m-95" style="edgeStyle=orthogonalEdgeStyle;rounded=0;orthogonalLoop=1;jettySize=auto;html=1;fontFamily=Verdana;fontSize=18;exitX=0.5;exitY=1;exitDx=0;exitDy=0;entryX=0.5;entryY=0;entryDx=0;entryDy=0;" edge="1" parent="1" source="LtiFozr3K5Bf2lxsZp5m-11" target="LtiFozr3K5Bf2lxsZp5m-94">
          <mxGeometry relative="1" as="geometry">
            <mxPoint x="-265.0000000000002" y="260" as="targetPoint" />
            <mxPoint x="-265" y="220" as="sourcePoint" />
          </mxGeometry>
        </mxCell>
        <mxCell id="LtiFozr3K5Bf2lxsZp5m-96" value="29" style="text;html=1;align=center;verticalAlign=middle;resizable=0;points=[];autosize=1;strokeColor=none;fillColor=none;fontSize=18;fontFamily=Verdana;" vertex="1" parent="1">
          <mxGeometry x="-205" y="215" width="50" height="40" as="geometry" />
        </mxCell>
        <mxCell id="LtiFozr3K5Bf2lxsZp5m-97" value="25" style="text;html=1;align=center;verticalAlign=middle;resizable=0;points=[];autosize=1;strokeColor=none;fillColor=none;fontSize=18;fontFamily=Verdana;" vertex="1" parent="1">
          <mxGeometry x="-275" y="215" width="50" height="40" as="geometry" />
        </mxCell>
        <mxCell id="LtiFozr3K5Bf2lxsZp5m-98" value="V" style="ellipse;whiteSpace=wrap;html=1;aspect=fixed;fontSize=18;fontStyle=1" vertex="1" parent="1">
          <mxGeometry x="-220" y="330" width="50" height="50" as="geometry" />
        </mxCell>
        <mxCell id="LtiFozr3K5Bf2lxsZp5m-99" value="L" style="ellipse;whiteSpace=wrap;html=1;aspect=fixed;fontSize=18;fontStyle=1" vertex="1" parent="1">
          <mxGeometry x="-140" y="250" width="50" height="50" as="geometry" />
        </mxCell>
        <mxCell id="LtiFozr3K5Bf2lxsZp5m-100" value="L" style="ellipse;whiteSpace=wrap;html=1;aspect=fixed;fontSize=18;fontStyle=1" vertex="1" parent="1">
          <mxGeometry x="-60" y="250" width="50" height="50" as="geometry" />
        </mxCell>
        <mxCell id="LtiFozr3K5Bf2lxsZp5m-102" value="V" style="ellipse;whiteSpace=wrap;html=1;aspect=fixed;fontSize=18;fontStyle=1" vertex="1" parent="1">
          <mxGeometry x="-170" y="400" width="50" height="50" as="geometry" />
        </mxCell>
        <mxCell id="LtiFozr3K5Bf2lxsZp5m-103" value="" style="endArrow=classic;html=1;rounded=0;fontFamily=Verdana;fontSize=18;exitX=0.5;exitY=1;exitDx=0;exitDy=0;entryX=0.407;entryY=-0.007;entryDx=0;entryDy=0;entryPerimeter=0;" edge="1" parent="1" source="LtiFozr3K5Bf2lxsZp5m-98" target="LtiFozr3K5Bf2lxsZp5m-102">
          <mxGeometry width="50" height="50" relative="1" as="geometry">
            <mxPoint x="-140" y="400" as="sourcePoint" />
            <mxPoint x="-90" y="350" as="targetPoint" />
          </mxGeometry>
        </mxCell>
        <mxCell id="LtiFozr3K5Bf2lxsZp5m-104" value="" style="endArrow=classic;html=1;rounded=0;fontFamily=Verdana;fontSize=18;entryX=0.5;entryY=0;entryDx=0;entryDy=0;" edge="1" parent="1" source="LtiFozr3K5Bf2lxsZp5m-99" target="LtiFozr3K5Bf2lxsZp5m-102">
          <mxGeometry width="50" height="50" relative="1" as="geometry">
            <mxPoint x="-185" y="390" as="sourcePoint" />
            <mxPoint x="-140" y="410" as="targetPoint" />
          </mxGeometry>
        </mxCell>
        <mxCell id="LtiFozr3K5Bf2lxsZp5m-172" style="edgeStyle=orthogonalEdgeStyle;rounded=0;orthogonalLoop=1;jettySize=auto;html=1;entryX=0.5;entryY=0;entryDx=0;entryDy=0;fontFamily=Verdana;fontSize=18;" edge="1" parent="1" source="LtiFozr3K5Bf2lxsZp5m-108" target="LtiFozr3K5Bf2lxsZp5m-168">
          <mxGeometry relative="1" as="geometry">
            <Array as="points">
              <mxPoint x="-75" y="900" />
              <mxPoint x="205" y="900" />
            </Array>
          </mxGeometry>
        </mxCell>
        <mxCell id="LtiFozr3K5Bf2lxsZp5m-108" value="V" style="ellipse;whiteSpace=wrap;html=1;aspect=fixed;fontSize=18;fontStyle=1" vertex="1" parent="1">
          <mxGeometry x="-100" y="460" width="50" height="50" as="geometry" />
        </mxCell>
        <mxCell id="LtiFozr3K5Bf2lxsZp5m-109" value="" style="endArrow=classic;html=1;rounded=0;fontFamily=Verdana;fontSize=18;entryX=0.407;entryY=-0.007;entryDx=0;entryDy=0;entryPerimeter=0;exitX=1;exitY=1;exitDx=0;exitDy=0;" edge="1" parent="1" source="LtiFozr3K5Bf2lxsZp5m-102" target="LtiFozr3K5Bf2lxsZp5m-108">
          <mxGeometry width="50" height="50" relative="1" as="geometry">
            <mxPoint x="-90" y="421" as="sourcePoint" />
            <mxPoint x="15" y="391" as="targetPoint" />
          </mxGeometry>
        </mxCell>
        <mxCell id="LtiFozr3K5Bf2lxsZp5m-110" value="" style="endArrow=classic;html=1;rounded=0;fontFamily=Verdana;fontSize=18;entryX=0.5;entryY=0;entryDx=0;entryDy=0;exitX=0.5;exitY=1;exitDx=0;exitDy=0;" edge="1" parent="1" source="LtiFozr3K5Bf2lxsZp5m-100" target="LtiFozr3K5Bf2lxsZp5m-108">
          <mxGeometry width="50" height="50" relative="1" as="geometry">
            <mxPoint x="-30" y="310" as="sourcePoint" />
            <mxPoint x="-35" y="451" as="targetPoint" />
          </mxGeometry>
        </mxCell>
        <mxCell id="LtiFozr3K5Bf2lxsZp5m-111" value="29" style="text;html=1;align=center;verticalAlign=middle;resizable=0;points=[];autosize=1;strokeColor=none;fillColor=none;fontSize=18;fontFamily=Verdana;" vertex="1" parent="1">
          <mxGeometry x="-125" y="215" width="50" height="40" as="geometry" />
        </mxCell>
        <mxCell id="LtiFozr3K5Bf2lxsZp5m-112" value="29" style="text;html=1;align=center;verticalAlign=middle;resizable=0;points=[];autosize=1;strokeColor=none;fillColor=none;fontSize=18;fontFamily=Verdana;" vertex="1" parent="1">
          <mxGeometry x="-45" y="215" width="50" height="40" as="geometry" />
        </mxCell>
        <mxCell id="LtiFozr3K5Bf2lxsZp5m-113" value="16" style="text;html=1;align=center;verticalAlign=middle;resizable=0;points=[];autosize=1;strokeColor=none;fillColor=none;fontSize=18;fontFamily=Verdana;" vertex="1" parent="1">
          <mxGeometry x="-205" y="295" width="50" height="40" as="geometry" />
        </mxCell>
        <mxCell id="LtiFozr3K5Bf2lxsZp5m-115" value="17" style="text;html=1;align=center;verticalAlign=middle;resizable=0;points=[];autosize=1;strokeColor=none;fillColor=none;fontSize=18;fontFamily=Verdana;" vertex="1" parent="1">
          <mxGeometry x="-185" y="355" width="50" height="40" as="geometry" />
        </mxCell>
        <mxCell id="LtiFozr3K5Bf2lxsZp5m-116" value="17" style="text;html=1;align=center;verticalAlign=middle;resizable=0;points=[];autosize=1;strokeColor=none;fillColor=none;fontSize=18;fontFamily=Verdana;" vertex="1" parent="1">
          <mxGeometry x="-125" y="415" width="50" height="40" as="geometry" />
        </mxCell>
        <mxCell id="LtiFozr3K5Bf2lxsZp5m-117" style="edgeStyle=orthogonalEdgeStyle;rounded=0;orthogonalLoop=1;jettySize=auto;html=1;fontFamily=Verdana;fontSize=18;" edge="1" parent="1" target="LtiFozr3K5Bf2lxsZp5m-118">
          <mxGeometry relative="1" as="geometry">
            <mxPoint x="125" y="210" as="sourcePoint" />
          </mxGeometry>
        </mxCell>
        <mxCell id="LtiFozr3K5Bf2lxsZp5m-132" style="edgeStyle=orthogonalEdgeStyle;rounded=0;orthogonalLoop=1;jettySize=auto;html=1;entryX=0.5;entryY=0;entryDx=0;entryDy=0;fontFamily=Verdana;fontSize=18;" edge="1" parent="1" source="LtiFozr3K5Bf2lxsZp5m-118" target="LtiFozr3K5Bf2lxsZp5m-130">
          <mxGeometry relative="1" as="geometry" />
        </mxCell>
        <mxCell id="LtiFozr3K5Bf2lxsZp5m-118" value="L" style="ellipse;whiteSpace=wrap;html=1;aspect=fixed;fontSize=18;fontStyle=1" vertex="1" parent="1">
          <mxGeometry x="100" y="250" width="50" height="50" as="geometry" />
        </mxCell>
        <mxCell id="LtiFozr3K5Bf2lxsZp5m-119" value="29" style="text;html=1;align=center;verticalAlign=middle;resizable=0;points=[];autosize=1;strokeColor=none;fillColor=none;fontSize=18;fontFamily=Verdana;" vertex="1" parent="1">
          <mxGeometry x="115" y="215" width="50" height="40" as="geometry" />
        </mxCell>
        <mxCell id="LtiFozr3K5Bf2lxsZp5m-120" style="edgeStyle=orthogonalEdgeStyle;rounded=0;orthogonalLoop=1;jettySize=auto;html=1;fontFamily=Verdana;fontSize=18;" edge="1" parent="1" target="LtiFozr3K5Bf2lxsZp5m-121">
          <mxGeometry relative="1" as="geometry">
            <mxPoint x="285" y="210" as="sourcePoint" />
          </mxGeometry>
        </mxCell>
        <mxCell id="LtiFozr3K5Bf2lxsZp5m-121" value="L" style="ellipse;whiteSpace=wrap;html=1;aspect=fixed;fontSize=18;fontStyle=1" vertex="1" parent="1">
          <mxGeometry x="260" y="250" width="50" height="50" as="geometry" />
        </mxCell>
        <mxCell id="LtiFozr3K5Bf2lxsZp5m-122" value="29" style="text;html=1;align=center;verticalAlign=middle;resizable=0;points=[];autosize=1;strokeColor=none;fillColor=none;fontSize=18;fontFamily=Verdana;" vertex="1" parent="1">
          <mxGeometry x="275" y="215" width="50" height="40" as="geometry" />
        </mxCell>
        <mxCell id="LtiFozr3K5Bf2lxsZp5m-123" style="edgeStyle=orthogonalEdgeStyle;rounded=0;orthogonalLoop=1;jettySize=auto;html=1;fontFamily=Verdana;fontSize=18;" edge="1" parent="1" target="LtiFozr3K5Bf2lxsZp5m-124">
          <mxGeometry relative="1" as="geometry">
            <mxPoint x="525" y="210" as="sourcePoint" />
          </mxGeometry>
        </mxCell>
        <mxCell id="LtiFozr3K5Bf2lxsZp5m-199" style="edgeStyle=orthogonalEdgeStyle;rounded=0;orthogonalLoop=1;jettySize=auto;html=1;entryX=0.5;entryY=0;entryDx=0;entryDy=0;fontFamily=Verdana;fontSize=18;" edge="1" parent="1" source="LtiFozr3K5Bf2lxsZp5m-124" target="LtiFozr3K5Bf2lxsZp5m-182">
          <mxGeometry relative="1" as="geometry" />
        </mxCell>
        <mxCell id="LtiFozr3K5Bf2lxsZp5m-124" value="D" style="ellipse;whiteSpace=wrap;html=1;aspect=fixed;fontSize=18;fontStyle=1" vertex="1" parent="1">
          <mxGeometry x="500" y="250" width="50" height="50" as="geometry" />
        </mxCell>
        <mxCell id="LtiFozr3K5Bf2lxsZp5m-125" value="30" style="text;html=1;align=center;verticalAlign=middle;resizable=0;points=[];autosize=1;strokeColor=none;fillColor=none;fontSize=18;fontFamily=Verdana;" vertex="1" parent="1">
          <mxGeometry x="515" y="215" width="50" height="40" as="geometry" />
        </mxCell>
        <mxCell id="LtiFozr3K5Bf2lxsZp5m-126" style="edgeStyle=orthogonalEdgeStyle;rounded=0;orthogonalLoop=1;jettySize=auto;html=1;fontFamily=Verdana;fontSize=18;" edge="1" parent="1" target="LtiFozr3K5Bf2lxsZp5m-127">
          <mxGeometry relative="1" as="geometry">
            <mxPoint x="205" y="210" as="sourcePoint" />
          </mxGeometry>
        </mxCell>
        <mxCell id="LtiFozr3K5Bf2lxsZp5m-127" value="Z" style="ellipse;whiteSpace=wrap;html=1;aspect=fixed;fontSize=18;fontStyle=1" vertex="1" parent="1">
          <mxGeometry x="180" y="250" width="50" height="50" as="geometry" />
        </mxCell>
        <mxCell id="LtiFozr3K5Bf2lxsZp5m-128" value="25" style="text;html=1;align=center;verticalAlign=middle;resizable=0;points=[];autosize=1;strokeColor=none;fillColor=none;fontSize=18;fontFamily=Verdana;" vertex="1" parent="1">
          <mxGeometry x="195" y="215" width="50" height="40" as="geometry" />
        </mxCell>
        <mxCell id="LtiFozr3K5Bf2lxsZp5m-133" style="edgeStyle=orthogonalEdgeStyle;rounded=0;orthogonalLoop=1;jettySize=auto;html=1;entryX=0.5;entryY=0;entryDx=0;entryDy=0;fontFamily=Verdana;fontSize=18;" edge="1" parent="1" source="LtiFozr3K5Bf2lxsZp5m-130" target="LtiFozr3K5Bf2lxsZp5m-131">
          <mxGeometry relative="1" as="geometry" />
        </mxCell>
        <mxCell id="LtiFozr3K5Bf2lxsZp5m-130" value="V" style="ellipse;whiteSpace=wrap;html=1;aspect=fixed;fontSize=18;fontStyle=1" vertex="1" parent="1">
          <mxGeometry x="100" y="330" width="50" height="50" as="geometry" />
        </mxCell>
        <mxCell id="LtiFozr3K5Bf2lxsZp5m-131" value="H" style="ellipse;whiteSpace=wrap;html=1;aspect=fixed;fontSize=18;fontStyle=1" vertex="1" parent="1">
          <mxGeometry x="100" y="410" width="50" height="50" as="geometry" />
        </mxCell>
        <mxCell id="LtiFozr3K5Bf2lxsZp5m-134" value="12" style="text;html=1;align=center;verticalAlign=middle;resizable=0;points=[];autosize=1;strokeColor=none;fillColor=none;fontSize=18;fontFamily=Verdana;" vertex="1" parent="1">
          <mxGeometry x="115" y="375" width="50" height="40" as="geometry" />
        </mxCell>
        <mxCell id="LtiFozr3K5Bf2lxsZp5m-136" value="16" style="text;html=1;align=center;verticalAlign=middle;resizable=0;points=[];autosize=1;strokeColor=none;fillColor=none;fontSize=18;fontFamily=Verdana;" vertex="1" parent="1">
          <mxGeometry x="115" y="290" width="50" height="40" as="geometry" />
        </mxCell>
        <mxCell id="LtiFozr3K5Bf2lxsZp5m-137" value="U" style="ellipse;whiteSpace=wrap;html=1;aspect=fixed;fontSize=18;fontStyle=1" vertex="1" parent="1">
          <mxGeometry x="100" y="490" width="50" height="50" as="geometry" />
        </mxCell>
        <mxCell id="LtiFozr3K5Bf2lxsZp5m-138" style="edgeStyle=orthogonalEdgeStyle;rounded=0;orthogonalLoop=1;jettySize=auto;html=1;entryX=0.5;entryY=0;entryDx=0;entryDy=0;fontFamily=Verdana;fontSize=18;" edge="1" parent="1" target="LtiFozr3K5Bf2lxsZp5m-137">
          <mxGeometry relative="1" as="geometry">
            <mxPoint x="125" y="460" as="sourcePoint" />
            <mxPoint x="125" y="490" as="targetPoint" />
          </mxGeometry>
        </mxCell>
        <mxCell id="LtiFozr3K5Bf2lxsZp5m-139" value="9" style="text;html=1;align=center;verticalAlign=middle;resizable=0;points=[];autosize=1;strokeColor=none;fillColor=none;fontSize=18;fontFamily=Verdana;" vertex="1" parent="1">
          <mxGeometry x="125" y="455" width="30" height="40" as="geometry" />
        </mxCell>
        <mxCell id="LtiFozr3K5Bf2lxsZp5m-140" value="T" style="ellipse;whiteSpace=wrap;html=1;aspect=fixed;fontSize=18;fontStyle=1" vertex="1" parent="1">
          <mxGeometry x="100" y="570" width="50" height="50" as="geometry" />
        </mxCell>
        <mxCell id="LtiFozr3K5Bf2lxsZp5m-141" style="edgeStyle=orthogonalEdgeStyle;rounded=0;orthogonalLoop=1;jettySize=auto;html=1;entryX=0.5;entryY=0;entryDx=0;entryDy=0;fontFamily=Verdana;fontSize=18;" edge="1" parent="1" target="LtiFozr3K5Bf2lxsZp5m-140">
          <mxGeometry relative="1" as="geometry">
            <mxPoint x="125" y="540" as="sourcePoint" />
            <mxPoint x="125" y="570" as="targetPoint" />
          </mxGeometry>
        </mxCell>
        <mxCell id="LtiFozr3K5Bf2lxsZp5m-142" value="7" style="text;html=1;align=center;verticalAlign=middle;resizable=0;points=[];autosize=1;strokeColor=none;fillColor=none;fontSize=18;fontFamily=Verdana;" vertex="1" parent="1">
          <mxGeometry x="125" y="535" width="30" height="40" as="geometry" />
        </mxCell>
        <mxCell id="LtiFozr3K5Bf2lxsZp5m-143" value="A" style="ellipse;whiteSpace=wrap;html=1;aspect=fixed;fontSize=18;fontStyle=1" vertex="1" parent="1">
          <mxGeometry x="100" y="650" width="50" height="50" as="geometry" />
        </mxCell>
        <mxCell id="LtiFozr3K5Bf2lxsZp5m-144" style="edgeStyle=orthogonalEdgeStyle;rounded=0;orthogonalLoop=1;jettySize=auto;html=1;entryX=0.5;entryY=0;entryDx=0;entryDy=0;fontFamily=Verdana;fontSize=18;" edge="1" parent="1" target="LtiFozr3K5Bf2lxsZp5m-143">
          <mxGeometry relative="1" as="geometry">
            <mxPoint x="125" y="620" as="sourcePoint" />
            <mxPoint x="125" y="650" as="targetPoint" />
          </mxGeometry>
        </mxCell>
        <mxCell id="LtiFozr3K5Bf2lxsZp5m-145" value="4" style="text;html=1;align=center;verticalAlign=middle;resizable=0;points=[];autosize=1;strokeColor=none;fillColor=none;fontSize=18;fontFamily=Verdana;" vertex="1" parent="1">
          <mxGeometry x="125" y="615" width="30" height="40" as="geometry" />
        </mxCell>
        <mxCell id="LtiFozr3K5Bf2lxsZp5m-146" style="edgeStyle=orthogonalEdgeStyle;rounded=0;orthogonalLoop=1;jettySize=auto;html=1;entryX=0.5;entryY=0;entryDx=0;entryDy=0;fontFamily=Verdana;fontSize=18;" edge="1" parent="1" target="LtiFozr3K5Bf2lxsZp5m-148">
          <mxGeometry relative="1" as="geometry">
            <mxPoint x="285" y="300" as="sourcePoint" />
          </mxGeometry>
        </mxCell>
        <mxCell id="LtiFozr3K5Bf2lxsZp5m-147" style="edgeStyle=orthogonalEdgeStyle;rounded=0;orthogonalLoop=1;jettySize=auto;html=1;entryX=0.5;entryY=0;entryDx=0;entryDy=0;fontFamily=Verdana;fontSize=18;" edge="1" parent="1" source="LtiFozr3K5Bf2lxsZp5m-148" target="LtiFozr3K5Bf2lxsZp5m-149">
          <mxGeometry relative="1" as="geometry" />
        </mxCell>
        <mxCell id="LtiFozr3K5Bf2lxsZp5m-148" value="V" style="ellipse;whiteSpace=wrap;html=1;aspect=fixed;fontSize=18;fontStyle=1" vertex="1" parent="1">
          <mxGeometry x="260" y="330" width="50" height="50" as="geometry" />
        </mxCell>
        <mxCell id="LtiFozr3K5Bf2lxsZp5m-149" value="H" style="ellipse;whiteSpace=wrap;html=1;aspect=fixed;fontSize=18;fontStyle=1" vertex="1" parent="1">
          <mxGeometry x="260" y="410" width="50" height="50" as="geometry" />
        </mxCell>
        <mxCell id="LtiFozr3K5Bf2lxsZp5m-150" value="12" style="text;html=1;align=center;verticalAlign=middle;resizable=0;points=[];autosize=1;strokeColor=none;fillColor=none;fontSize=18;fontFamily=Verdana;" vertex="1" parent="1">
          <mxGeometry x="275" y="375" width="50" height="40" as="geometry" />
        </mxCell>
        <mxCell id="LtiFozr3K5Bf2lxsZp5m-151" value="16" style="text;html=1;align=center;verticalAlign=middle;resizable=0;points=[];autosize=1;strokeColor=none;fillColor=none;fontSize=18;fontFamily=Verdana;" vertex="1" parent="1">
          <mxGeometry x="275" y="290" width="50" height="40" as="geometry" />
        </mxCell>
        <mxCell id="LtiFozr3K5Bf2lxsZp5m-152" value="U" style="ellipse;whiteSpace=wrap;html=1;aspect=fixed;fontSize=18;fontStyle=1" vertex="1" parent="1">
          <mxGeometry x="260" y="490" width="50" height="50" as="geometry" />
        </mxCell>
        <mxCell id="LtiFozr3K5Bf2lxsZp5m-153" style="edgeStyle=orthogonalEdgeStyle;rounded=0;orthogonalLoop=1;jettySize=auto;html=1;entryX=0.5;entryY=0;entryDx=0;entryDy=0;fontFamily=Verdana;fontSize=18;" edge="1" parent="1" target="LtiFozr3K5Bf2lxsZp5m-152">
          <mxGeometry relative="1" as="geometry">
            <mxPoint x="285" y="460" as="sourcePoint" />
            <mxPoint x="285" y="490" as="targetPoint" />
          </mxGeometry>
        </mxCell>
        <mxCell id="LtiFozr3K5Bf2lxsZp5m-154" value="9" style="text;html=1;align=center;verticalAlign=middle;resizable=0;points=[];autosize=1;strokeColor=none;fillColor=none;fontSize=18;fontFamily=Verdana;" vertex="1" parent="1">
          <mxGeometry x="285" y="455" width="30" height="40" as="geometry" />
        </mxCell>
        <mxCell id="LtiFozr3K5Bf2lxsZp5m-155" value="T" style="ellipse;whiteSpace=wrap;html=1;aspect=fixed;fontSize=18;fontStyle=1" vertex="1" parent="1">
          <mxGeometry x="260" y="570" width="50" height="50" as="geometry" />
        </mxCell>
        <mxCell id="LtiFozr3K5Bf2lxsZp5m-156" style="edgeStyle=orthogonalEdgeStyle;rounded=0;orthogonalLoop=1;jettySize=auto;html=1;entryX=0.5;entryY=0;entryDx=0;entryDy=0;fontFamily=Verdana;fontSize=18;" edge="1" parent="1" target="LtiFozr3K5Bf2lxsZp5m-155">
          <mxGeometry relative="1" as="geometry">
            <mxPoint x="285" y="540" as="sourcePoint" />
            <mxPoint x="285" y="570" as="targetPoint" />
          </mxGeometry>
        </mxCell>
        <mxCell id="LtiFozr3K5Bf2lxsZp5m-157" value="7" style="text;html=1;align=center;verticalAlign=middle;resizable=0;points=[];autosize=1;strokeColor=none;fillColor=none;fontSize=18;fontFamily=Verdana;" vertex="1" parent="1">
          <mxGeometry x="285" y="535" width="30" height="40" as="geometry" />
        </mxCell>
        <mxCell id="LtiFozr3K5Bf2lxsZp5m-166" style="edgeStyle=orthogonalEdgeStyle;rounded=0;orthogonalLoop=1;jettySize=auto;html=1;entryX=0.5;entryY=0;entryDx=0;entryDy=0;fontFamily=Verdana;fontSize=18;" edge="1" parent="1" source="LtiFozr3K5Bf2lxsZp5m-158" target="LtiFozr3K5Bf2lxsZp5m-165">
          <mxGeometry relative="1" as="geometry" />
        </mxCell>
        <mxCell id="LtiFozr3K5Bf2lxsZp5m-158" value="A" style="ellipse;whiteSpace=wrap;html=1;aspect=fixed;fontSize=18;fontStyle=1" vertex="1" parent="1">
          <mxGeometry x="180" y="730" width="50" height="50" as="geometry" />
        </mxCell>
        <mxCell id="LtiFozr3K5Bf2lxsZp5m-161" value="" style="endArrow=classic;html=1;rounded=0;fontFamily=Verdana;fontSize=18;entryX=0.5;entryY=0;entryDx=0;entryDy=0;" edge="1" parent="1" target="LtiFozr3K5Bf2lxsZp5m-158">
          <mxGeometry width="50" height="50" relative="1" as="geometry">
            <mxPoint x="130" y="700" as="sourcePoint" />
            <mxPoint x="-60" y="540" as="targetPoint" />
          </mxGeometry>
        </mxCell>
        <mxCell id="LtiFozr3K5Bf2lxsZp5m-162" value="" style="endArrow=classic;html=1;rounded=0;fontFamily=Verdana;fontSize=18;entryX=0.5;entryY=0;entryDx=0;entryDy=0;exitX=0.5;exitY=1;exitDx=0;exitDy=0;" edge="1" parent="1" source="LtiFozr3K5Bf2lxsZp5m-127" target="LtiFozr3K5Bf2lxsZp5m-158">
          <mxGeometry width="50" height="50" relative="1" as="geometry">
            <mxPoint x="140" y="710" as="sourcePoint" />
            <mxPoint x="215" y="740" as="targetPoint" />
          </mxGeometry>
        </mxCell>
        <mxCell id="LtiFozr3K5Bf2lxsZp5m-163" value="" style="endArrow=classic;html=1;rounded=0;fontFamily=Verdana;fontSize=18;entryX=0.5;entryY=0;entryDx=0;entryDy=0;exitX=0.5;exitY=1;exitDx=0;exitDy=0;" edge="1" parent="1" source="LtiFozr3K5Bf2lxsZp5m-155" target="LtiFozr3K5Bf2lxsZp5m-158">
          <mxGeometry width="50" height="50" relative="1" as="geometry">
            <mxPoint x="140" y="710" as="sourcePoint" />
            <mxPoint x="215" y="740" as="targetPoint" />
          </mxGeometry>
        </mxCell>
        <mxCell id="LtiFozr3K5Bf2lxsZp5m-164" value="6" style="text;html=1;align=center;verticalAlign=middle;resizable=0;points=[];autosize=1;strokeColor=none;fillColor=none;fontSize=18;fontFamily=Verdana;" vertex="1" parent="1">
          <mxGeometry x="170" y="685" width="30" height="40" as="geometry" />
        </mxCell>
        <mxCell id="LtiFozr3K5Bf2lxsZp5m-171" style="edgeStyle=orthogonalEdgeStyle;rounded=0;orthogonalLoop=1;jettySize=auto;html=1;fontFamily=Verdana;fontSize=18;" edge="1" parent="1" source="LtiFozr3K5Bf2lxsZp5m-165">
          <mxGeometry relative="1" as="geometry">
            <mxPoint x="205" y="920" as="targetPoint" />
          </mxGeometry>
        </mxCell>
        <mxCell id="LtiFozr3K5Bf2lxsZp5m-165" value="B" style="ellipse;whiteSpace=wrap;html=1;aspect=fixed;fontSize=18;fontStyle=1" vertex="1" parent="1">
          <mxGeometry x="180" y="810" width="50" height="50" as="geometry" />
        </mxCell>
        <mxCell id="LtiFozr3K5Bf2lxsZp5m-167" value="2" style="text;html=1;align=center;verticalAlign=middle;resizable=0;points=[];autosize=1;strokeColor=none;fillColor=none;fontSize=18;fontFamily=Verdana;" vertex="1" parent="1">
          <mxGeometry x="205" y="775" width="30" height="40" as="geometry" />
        </mxCell>
        <mxCell id="LtiFozr3K5Bf2lxsZp5m-168" value="F" style="ellipse;whiteSpace=wrap;html=1;aspect=fixed;fontSize=18;fontStyle=1" vertex="1" parent="1">
          <mxGeometry x="180" y="920" width="50" height="50" as="geometry" />
        </mxCell>
        <mxCell id="LtiFozr3K5Bf2lxsZp5m-173" value="15" style="text;html=1;align=center;verticalAlign=middle;resizable=0;points=[];autosize=1;strokeColor=none;fillColor=none;fontSize=18;fontFamily=Verdana;" vertex="1" parent="1">
          <mxGeometry x="160" y="865" width="50" height="40" as="geometry" />
        </mxCell>
        <mxCell id="LtiFozr3K5Bf2lxsZp5m-174" value="H" style="ellipse;whiteSpace=wrap;html=1;aspect=fixed;fontSize=18;fontStyle=1" vertex="1" parent="1">
          <mxGeometry x="265" y="1000" width="50" height="50" as="geometry" />
        </mxCell>
        <mxCell id="LtiFozr3K5Bf2lxsZp5m-175" value="U" style="ellipse;whiteSpace=wrap;html=1;aspect=fixed;fontSize=18;fontStyle=1" vertex="1" parent="1">
          <mxGeometry x="440" y="1150" width="50" height="50" as="geometry" />
        </mxCell>
        <mxCell id="LtiFozr3K5Bf2lxsZp5m-176" value="" style="endArrow=classic;html=1;rounded=0;fontFamily=Verdana;fontSize=18;entryX=0;entryY=0;entryDx=0;entryDy=0;exitX=1;exitY=1;exitDx=0;exitDy=0;" edge="1" parent="1" source="LtiFozr3K5Bf2lxsZp5m-168" target="LtiFozr3K5Bf2lxsZp5m-174">
          <mxGeometry width="50" height="50" relative="1" as="geometry">
            <mxPoint x="-50" y="710" as="sourcePoint" />
            <mxPoint y="660" as="targetPoint" />
          </mxGeometry>
        </mxCell>
        <mxCell id="LtiFozr3K5Bf2lxsZp5m-177" value="" style="endArrow=classic;html=1;rounded=0;fontFamily=Verdana;fontSize=18;entryX=0.5;entryY=0;entryDx=0;entryDy=0;exitX=1;exitY=1;exitDx=0;exitDy=0;" edge="1" parent="1" source="LtiFozr3K5Bf2lxsZp5m-204" target="LtiFozr3K5Bf2lxsZp5m-175">
          <mxGeometry width="50" height="50" relative="1" as="geometry">
            <mxPoint x="310" y="1130" as="sourcePoint" />
            <mxPoint x="282" y="1017" as="targetPoint" />
            <Array as="points" />
          </mxGeometry>
        </mxCell>
        <mxCell id="LtiFozr3K5Bf2lxsZp5m-182" value="I" style="ellipse;whiteSpace=wrap;html=1;aspect=fixed;fontSize=18;fontStyle=1" vertex="1" parent="1">
          <mxGeometry x="500" y="325" width="50" height="50" as="geometry" />
        </mxCell>
        <mxCell id="LtiFozr3K5Bf2lxsZp5m-186" style="edgeStyle=orthogonalEdgeStyle;rounded=0;orthogonalLoop=1;jettySize=auto;html=1;entryX=0.5;entryY=0;entryDx=0;entryDy=0;fontFamily=Verdana;fontSize=18;" edge="1" parent="1" source="LtiFozr3K5Bf2lxsZp5m-187" target="LtiFozr3K5Bf2lxsZp5m-191">
          <mxGeometry relative="1" as="geometry" />
        </mxCell>
        <mxCell id="LtiFozr3K5Bf2lxsZp5m-187" value="R" style="ellipse;whiteSpace=wrap;html=1;aspect=fixed;fontSize=18;fontStyle=1" vertex="1" parent="1">
          <mxGeometry x="500" y="405" width="50" height="50" as="geometry" />
        </mxCell>
        <mxCell id="LtiFozr3K5Bf2lxsZp5m-188" value="" style="endArrow=classic;html=1;rounded=0;fontFamily=Verdana;fontSize=18;entryX=0.5;entryY=0;entryDx=0;entryDy=0;exitX=0.5;exitY=1;exitDx=0;exitDy=0;" edge="1" parent="1" source="LtiFozr3K5Bf2lxsZp5m-182" target="LtiFozr3K5Bf2lxsZp5m-187">
          <mxGeometry width="50" height="50" relative="1" as="geometry">
            <mxPoint x="464.9999999999998" y="375" as="sourcePoint" />
            <mxPoint x="475" y="335" as="targetPoint" />
          </mxGeometry>
        </mxCell>
        <mxCell id="LtiFozr3K5Bf2lxsZp5m-189" value="&lt;font style=&quot;font-size: 18px;&quot;&gt;19&lt;/font&gt;" style="text;html=1;align=center;verticalAlign=middle;resizable=0;points=[];autosize=1;strokeColor=none;fillColor=none;fontSize=18;fontFamily=Verdana;" vertex="1" parent="1">
          <mxGeometry x="525" y="365" width="50" height="40" as="geometry" />
        </mxCell>
        <mxCell id="LtiFozr3K5Bf2lxsZp5m-191" value="H" style="ellipse;whiteSpace=wrap;html=1;aspect=fixed;fontSize=18;fontStyle=1" vertex="1" parent="1">
          <mxGeometry x="500" y="475" width="50" height="50" as="geometry" />
        </mxCell>
        <mxCell id="LtiFozr3K5Bf2lxsZp5m-200" value="" style="endArrow=classic;html=1;rounded=0;fontFamily=Verdana;fontSize=18;exitX=0.5;exitY=1;exitDx=0;exitDy=0;entryX=0.5;entryY=0;entryDx=0;entryDy=0;" edge="1" parent="1" source="LtiFozr3K5Bf2lxsZp5m-191" target="LtiFozr3K5Bf2lxsZp5m-175">
          <mxGeometry width="50" height="50" relative="1" as="geometry">
            <mxPoint y="700" as="sourcePoint" />
            <mxPoint x="450" y="940" as="targetPoint" />
          </mxGeometry>
        </mxCell>
        <mxCell id="LtiFozr3K5Bf2lxsZp5m-201" value="11" style="text;html=1;align=center;verticalAlign=middle;resizable=0;points=[];autosize=1;strokeColor=none;fillColor=none;fontSize=18;fontFamily=Verdana;" vertex="1" parent="1">
          <mxGeometry x="230" y="955" width="50" height="40" as="geometry" />
        </mxCell>
        <mxCell id="LtiFozr3K5Bf2lxsZp5m-202" value="10" style="text;html=1;align=center;verticalAlign=middle;resizable=0;points=[];autosize=1;strokeColor=none;fillColor=none;fontSize=18;fontFamily=Verdana;" vertex="1" parent="1">
          <mxGeometry x="415" y="1105" width="50" height="40" as="geometry" />
        </mxCell>
        <mxCell id="LtiFozr3K5Bf2lxsZp5m-203" value="" style="endArrow=classic;html=1;rounded=0;fontFamily=Verdana;fontSize=18;entryX=0.5;entryY=0;entryDx=0;entryDy=0;exitX=0.5;exitY=1;exitDx=0;exitDy=0;" edge="1" parent="1" source="LtiFozr3K5Bf2lxsZp5m-21" target="LtiFozr3K5Bf2lxsZp5m-175">
          <mxGeometry width="50" height="50" relative="1" as="geometry">
            <mxPoint x="110" y="650" as="sourcePoint" />
            <mxPoint x="160" y="600" as="targetPoint" />
          </mxGeometry>
        </mxCell>
        <mxCell id="LtiFozr3K5Bf2lxsZp5m-204" value="U" style="ellipse;whiteSpace=wrap;html=1;aspect=fixed;fontSize=18;fontStyle=1" vertex="1" parent="1">
          <mxGeometry x="310" y="1080" width="50" height="50" as="geometry" />
        </mxCell>
        <mxCell id="LtiFozr3K5Bf2lxsZp5m-206" value="" style="endArrow=classic;html=1;rounded=0;fontFamily=Verdana;fontSize=18;entryX=0;entryY=0;entryDx=0;entryDy=0;exitX=0.5;exitY=1;exitDx=0;exitDy=0;" edge="1" parent="1" source="LtiFozr3K5Bf2lxsZp5m-174" target="LtiFozr3K5Bf2lxsZp5m-204">
          <mxGeometry width="50" height="50" relative="1" as="geometry">
            <mxPoint x="230" y="1040" as="sourcePoint" />
            <mxPoint x="280" y="990" as="targetPoint" />
          </mxGeometry>
        </mxCell>
        <mxCell id="LtiFozr3K5Bf2lxsZp5m-207" value="9" style="text;html=1;align=center;verticalAlign=middle;resizable=0;points=[];autosize=1;strokeColor=none;fillColor=none;fontSize=18;fontFamily=Verdana;" vertex="1" parent="1">
          <mxGeometry x="305" y="1040" width="30" height="40" as="geometry" />
        </mxCell>
        <mxCell id="LtiFozr3K5Bf2lxsZp5m-208" value="T" style="ellipse;whiteSpace=wrap;html=1;aspect=fixed;fontSize=18;fontStyle=1" vertex="1" parent="1">
          <mxGeometry y="1070" width="50" height="50" as="geometry" />
        </mxCell>
        <mxCell id="LtiFozr3K5Bf2lxsZp5m-209" value="" style="endArrow=classic;html=1;rounded=0;fontFamily=Verdana;fontSize=18;entryX=1;entryY=0.5;entryDx=0;entryDy=0;exitX=0;exitY=1;exitDx=0;exitDy=0;" edge="1" parent="1" source="LtiFozr3K5Bf2lxsZp5m-175" target="LtiFozr3K5Bf2lxsZp5m-208">
          <mxGeometry width="50" height="50" relative="1" as="geometry">
            <mxPoint x="-140" y="880" as="sourcePoint" />
            <mxPoint x="-90" y="830" as="targetPoint" />
          </mxGeometry>
        </mxCell>
        <mxCell id="LtiFozr3K5Bf2lxsZp5m-210" value="7" style="text;html=1;align=center;verticalAlign=middle;resizable=0;points=[];autosize=1;strokeColor=none;fillColor=none;fontSize=18;fontFamily=Verdana;" vertex="1" parent="1">
          <mxGeometry x="230" y="1105" width="30" height="40" as="geometry" />
        </mxCell>
        <mxCell id="LtiFozr3K5Bf2lxsZp5m-211" value="A" style="ellipse;whiteSpace=wrap;html=1;aspect=fixed;fontSize=18;fontStyle=1" vertex="1" parent="1">
          <mxGeometry x="-350" y="1140" width="50" height="50" as="geometry" />
        </mxCell>
        <mxCell id="LtiFozr3K5Bf2lxsZp5m-212" value="" style="endArrow=classic;html=1;rounded=0;fontFamily=Verdana;fontSize=18;entryX=0.5;entryY=0;entryDx=0;entryDy=0;exitX=0.5;exitY=1;exitDx=0;exitDy=0;" edge="1" parent="1" source="LtiFozr3K5Bf2lxsZp5m-86" target="LtiFozr3K5Bf2lxsZp5m-211">
          <mxGeometry width="50" height="50" relative="1" as="geometry">
            <mxPoint x="-140" y="880" as="sourcePoint" />
            <mxPoint x="-90" y="830" as="targetPoint" />
          </mxGeometry>
        </mxCell>
        <mxCell id="LtiFozr3K5Bf2lxsZp5m-213" value="" style="endArrow=classic;html=1;rounded=0;fontFamily=Verdana;fontSize=18;exitX=0.5;exitY=1;exitDx=0;exitDy=0;entryX=0.5;entryY=0;entryDx=0;entryDy=0;" edge="1" parent="1" source="LtiFozr3K5Bf2lxsZp5m-93" target="LtiFozr3K5Bf2lxsZp5m-211">
          <mxGeometry width="50" height="50" relative="1" as="geometry">
            <mxPoint x="-375" y="820" as="sourcePoint" />
            <mxPoint x="-320" y="1020" as="targetPoint" />
          </mxGeometry>
        </mxCell>
        <mxCell id="LtiFozr3K5Bf2lxsZp5m-214" value="" style="endArrow=classic;html=1;rounded=0;fontFamily=Verdana;fontSize=18;exitX=0.016;exitY=0.325;exitDx=0;exitDy=0;exitPerimeter=0;entryX=1.01;entryY=0.37;entryDx=0;entryDy=0;entryPerimeter=0;" edge="1" parent="1" source="LtiFozr3K5Bf2lxsZp5m-208" target="LtiFozr3K5Bf2lxsZp5m-211">
          <mxGeometry width="50" height="50" relative="1" as="geometry">
            <mxPoint x="-190" y="940" as="sourcePoint" />
            <mxPoint x="-300" y="1060" as="targetPoint" />
          </mxGeometry>
        </mxCell>
        <mxCell id="LtiFozr3K5Bf2lxsZp5m-215" value="6" style="text;html=1;align=center;verticalAlign=middle;resizable=0;points=[];autosize=1;strokeColor=none;fillColor=none;fontSize=18;fontFamily=Verdana;" vertex="1" parent="1">
          <mxGeometry x="-315" y="1105" width="30" height="40" as="geometry" />
        </mxCell>
        <mxCell id="LtiFozr3K5Bf2lxsZp5m-216" value="22" style="text;html=1;align=center;verticalAlign=middle;resizable=0;points=[];autosize=1;strokeColor=none;fillColor=none;fontSize=18;fontFamily=Verdana;" vertex="1" parent="1">
          <mxGeometry x="-535" y="450" width="50" height="40" as="geometry" />
        </mxCell>
        <mxCell id="LtiFozr3K5Bf2lxsZp5m-217" value="13" style="text;html=1;align=center;verticalAlign=middle;resizable=0;points=[];autosize=1;strokeColor=none;fillColor=none;fontSize=18;fontFamily=Verdana;" vertex="1" parent="1">
          <mxGeometry x="-535" y="525" width="50" height="40" as="geometry" />
        </mxCell>
        <mxCell id="LtiFozr3K5Bf2lxsZp5m-218" value="9" style="text;html=1;align=center;verticalAlign=middle;resizable=0;points=[];autosize=1;strokeColor=none;fillColor=none;fontSize=18;fontFamily=Verdana;" vertex="1" parent="1">
          <mxGeometry x="-520" y="595" width="30" height="40" as="geometry" />
        </mxCell>
        <mxCell id="LtiFozr3K5Bf2lxsZp5m-219" value="7" style="text;html=1;align=center;verticalAlign=middle;resizable=0;points=[];autosize=1;strokeColor=none;fillColor=none;fontSize=18;fontFamily=Verdana;" vertex="1" parent="1">
          <mxGeometry x="-520" y="675" width="30" height="40" as="geometry" />
        </mxCell>
        <mxCell id="LtiFozr3K5Bf2lxsZp5m-220" value="4" style="text;html=1;align=center;verticalAlign=middle;resizable=0;points=[];autosize=1;strokeColor=none;fillColor=none;fontSize=18;fontFamily=Verdana;" vertex="1" parent="1">
          <mxGeometry x="-525" y="735" width="30" height="40" as="geometry" />
        </mxCell>
        <mxCell id="LtiFozr3K5Bf2lxsZp5m-222" value="23" style="text;html=1;align=center;verticalAlign=middle;resizable=0;points=[];autosize=1;strokeColor=none;fillColor=none;fontSize=18;fontFamily=Verdana;" vertex="1" parent="1">
          <mxGeometry x="525" y="295" width="50" height="40" as="geometry" />
        </mxCell>
        <mxCell id="LtiFozr3K5Bf2lxsZp5m-223" value="13" style="text;html=1;align=center;verticalAlign=middle;resizable=0;points=[];autosize=1;strokeColor=none;fillColor=none;fontSize=18;fontFamily=Verdana;" vertex="1" parent="1">
          <mxGeometry x="525" y="450" width="50" height="40" as="geometry" />
        </mxCell>
        <mxCell id="S-AW7ORlAw7sAJhm5qHH-2" value="/" style="ellipse;whiteSpace=wrap;html=1;aspect=fixed;fontSize=18;fontStyle=1" vertex="1" parent="1">
          <mxGeometry x="-525" y="1260" width="50" height="50" as="geometry" />
        </mxCell>
        <mxCell id="S-AW7ORlAw7sAJhm5qHH-3" value="a" style="ellipse;whiteSpace=wrap;html=1;aspect=fixed;fontSize=18;fontStyle=1" vertex="1" parent="1">
          <mxGeometry x="-445" y="1260" width="50" height="50" as="geometry" />
        </mxCell>
        <mxCell id="S-AW7ORlAw7sAJhm5qHH-4" value="b" style="ellipse;whiteSpace=wrap;html=1;aspect=fixed;fontSize=18;fontStyle=1" vertex="1" parent="1">
          <mxGeometry x="-365" y="1260" width="50" height="50" as="geometry" />
        </mxCell>
        <mxCell id="S-AW7ORlAw7sAJhm5qHH-5" value="s" style="ellipse;whiteSpace=wrap;html=1;aspect=fixed;fontSize=18;fontStyle=1" vertex="1" parent="1">
          <mxGeometry x="-285" y="1260" width="50" height="50" as="geometry" />
        </mxCell>
        <mxCell id="S-AW7ORlAw7sAJhm5qHH-6" value="(" style="ellipse;whiteSpace=wrap;html=1;aspect=fixed;fontSize=18;fontStyle=1" vertex="1" parent="1">
          <mxGeometry x="-205" y="1260" width="50" height="50" as="geometry" />
        </mxCell>
        <mxCell id="S-AW7ORlAw7sAJhm5qHH-7" value="a" style="ellipse;whiteSpace=wrap;html=1;aspect=fixed;fontSize=18;fontStyle=1" vertex="1" parent="1">
          <mxGeometry x="-125" y="1260" width="50" height="50" as="geometry" />
        </mxCell>
        <mxCell id="S-AW7ORlAw7sAJhm5qHH-8" value="s" style="ellipse;whiteSpace=wrap;html=1;aspect=fixed;fontSize=18;fontStyle=1" vertex="1" parent="1">
          <mxGeometry x="-45" y="1260" width="50" height="50" as="geometry" />
        </mxCell>
        <mxCell id="S-AW7ORlAw7sAJhm5qHH-9" value="d" style="ellipse;whiteSpace=wrap;html=1;aspect=fixed;fontSize=18;fontStyle=1" vertex="1" parent="1">
          <mxGeometry x="35" y="1260" width="50" height="50" as="geometry" />
        </mxCell>
        <mxCell id="S-AW7ORlAw7sAJhm5qHH-149" style="edgeStyle=orthogonalEdgeStyle;rounded=0;orthogonalLoop=1;jettySize=auto;html=1;entryX=0.5;entryY=0;entryDx=0;entryDy=0;fontFamily=Helvetica;fontSize=18;fontColor=default;" edge="1" parent="1" source="S-AW7ORlAw7sAJhm5qHH-10" target="S-AW7ORlAw7sAJhm5qHH-145">
          <mxGeometry relative="1" as="geometry">
            <Array as="points">
              <mxPoint x="140" y="2100" />
              <mxPoint x="300" y="2100" />
            </Array>
          </mxGeometry>
        </mxCell>
        <mxCell id="S-AW7ORlAw7sAJhm5qHH-10" value="(" style="ellipse;whiteSpace=wrap;html=1;aspect=fixed;fontSize=18;fontStyle=1" vertex="1" parent="1">
          <mxGeometry x="115" y="1260" width="50" height="50" as="geometry" />
        </mxCell>
        <mxCell id="S-AW7ORlAw7sAJhm5qHH-11" value="3" style="ellipse;whiteSpace=wrap;html=1;aspect=fixed;fontSize=18;fontStyle=1" vertex="1" parent="1">
          <mxGeometry x="195" y="1260" width="50" height="50" as="geometry" />
        </mxCell>
        <mxCell id="S-AW7ORlAw7sAJhm5qHH-143" style="edgeStyle=orthogonalEdgeStyle;rounded=0;orthogonalLoop=1;jettySize=auto;html=1;fontFamily=Helvetica;fontSize=18;fontColor=default;" edge="1" parent="1" source="S-AW7ORlAw7sAJhm5qHH-12">
          <mxGeometry relative="1" as="geometry">
            <mxPoint x="300" y="1990" as="targetPoint" />
          </mxGeometry>
        </mxCell>
        <mxCell id="S-AW7ORlAw7sAJhm5qHH-12" value="," style="ellipse;whiteSpace=wrap;html=1;aspect=fixed;fontSize=18;fontStyle=1" vertex="1" parent="1">
          <mxGeometry x="275" y="1260" width="50" height="50" as="geometry" />
        </mxCell>
        <mxCell id="S-AW7ORlAw7sAJhm5qHH-13" value="x" style="ellipse;whiteSpace=wrap;html=1;aspect=fixed;fontSize=18;fontStyle=1" vertex="1" parent="1">
          <mxGeometry x="355" y="1260" width="50" height="50" as="geometry" />
        </mxCell>
        <mxCell id="S-AW7ORlAw7sAJhm5qHH-148" style="edgeStyle=orthogonalEdgeStyle;rounded=0;orthogonalLoop=1;jettySize=auto;html=1;entryX=0.5;entryY=0;entryDx=0;entryDy=0;fontFamily=Helvetica;fontSize=18;fontColor=default;" edge="1" parent="1" source="S-AW7ORlAw7sAJhm5qHH-14" target="S-AW7ORlAw7sAJhm5qHH-145">
          <mxGeometry relative="1" as="geometry">
            <Array as="points">
              <mxPoint x="460" y="2100" />
              <mxPoint x="300" y="2100" />
            </Array>
          </mxGeometry>
        </mxCell>
        <mxCell id="S-AW7ORlAw7sAJhm5qHH-14" value=")" style="ellipse;whiteSpace=wrap;html=1;aspect=fixed;fontSize=18;fontStyle=1" vertex="1" parent="1">
          <mxGeometry x="435" y="1260" width="50" height="50" as="geometry" />
        </mxCell>
        <mxCell id="S-AW7ORlAw7sAJhm5qHH-15" value="-" style="ellipse;whiteSpace=wrap;html=1;aspect=fixed;fontSize=18;fontStyle=1" vertex="1" parent="1">
          <mxGeometry x="515" y="1260" width="50" height="50" as="geometry" />
        </mxCell>
        <mxCell id="S-AW7ORlAw7sAJhm5qHH-16" value="2" style="ellipse;whiteSpace=wrap;html=1;aspect=fixed;fontSize=18;fontStyle=1" vertex="1" parent="1">
          <mxGeometry x="595" y="1260" width="50" height="50" as="geometry" />
        </mxCell>
        <mxCell id="S-AW7ORlAw7sAJhm5qHH-191" style="edgeStyle=orthogonalEdgeStyle;rounded=0;orthogonalLoop=1;jettySize=auto;html=1;entryX=0.5;entryY=0;entryDx=0;entryDy=0;fontFamily=Helvetica;fontSize=18;fontColor=default;" edge="1" parent="1" source="S-AW7ORlAw7sAJhm5qHH-17" target="S-AW7ORlAw7sAJhm5qHH-190">
          <mxGeometry relative="1" as="geometry" />
        </mxCell>
        <mxCell id="S-AW7ORlAw7sAJhm5qHH-17" value="*" style="ellipse;whiteSpace=wrap;html=1;aspect=fixed;fontSize=18;fontStyle=1" vertex="1" parent="1">
          <mxGeometry x="675" y="1260" width="50" height="50" as="geometry" />
        </mxCell>
        <mxCell id="S-AW7ORlAw7sAJhm5qHH-18" value="y" style="ellipse;whiteSpace=wrap;html=1;aspect=fixed;fontSize=18;fontStyle=1" vertex="1" parent="1">
          <mxGeometry x="755" y="1260" width="50" height="50" as="geometry" />
        </mxCell>
        <mxCell id="S-AW7ORlAw7sAJhm5qHH-185" style="edgeStyle=orthogonalEdgeStyle;rounded=0;orthogonalLoop=1;jettySize=auto;html=1;fontFamily=Helvetica;fontSize=18;fontColor=default;" edge="1" parent="1" source="S-AW7ORlAw7sAJhm5qHH-19" target="S-AW7ORlAw7sAJhm5qHH-184">
          <mxGeometry relative="1" as="geometry" />
        </mxCell>
        <mxCell id="S-AW7ORlAw7sAJhm5qHH-19" value="^" style="ellipse;whiteSpace=wrap;html=1;aspect=fixed;fontSize=18;fontStyle=1" vertex="1" parent="1">
          <mxGeometry x="835" y="1260" width="50" height="50" as="geometry" />
        </mxCell>
        <mxCell id="S-AW7ORlAw7sAJhm5qHH-20" value="2" style="ellipse;whiteSpace=wrap;html=1;aspect=fixed;fontSize=18;fontStyle=1" vertex="1" parent="1">
          <mxGeometry x="915" y="1260" width="50" height="50" as="geometry" />
        </mxCell>
        <mxCell id="S-AW7ORlAw7sAJhm5qHH-21" value=")" style="ellipse;whiteSpace=wrap;html=1;aspect=fixed;fontSize=18;fontStyle=1" vertex="1" parent="1">
          <mxGeometry x="995" y="1260" width="50" height="50" as="geometry" />
        </mxCell>
        <mxCell id="S-AW7ORlAw7sAJhm5qHH-23" value="(" style="ellipse;whiteSpace=wrap;html=1;aspect=fixed;fontSize=18;fontStyle=1" vertex="1" parent="1">
          <mxGeometry x="-765" y="1260" width="50" height="50" as="geometry" />
        </mxCell>
        <mxCell id="S-AW7ORlAw7sAJhm5qHH-24" value="A" style="ellipse;whiteSpace=wrap;html=1;aspect=fixed;fontSize=18;fontStyle=1" vertex="1" parent="1">
          <mxGeometry x="-685" y="1260" width="50" height="50" as="geometry" />
        </mxCell>
        <mxCell id="S-AW7ORlAw7sAJhm5qHH-25" value=")" style="ellipse;whiteSpace=wrap;html=1;aspect=fixed;fontSize=18;fontStyle=1" vertex="1" parent="1">
          <mxGeometry x="-605" y="1260" width="50" height="50" as="geometry" />
        </mxCell>
        <mxCell id="S-AW7ORlAw7sAJhm5qHH-26" style="edgeStyle=orthogonalEdgeStyle;rounded=0;orthogonalLoop=1;jettySize=auto;html=1;entryX=0.5;entryY=0;entryDx=0;entryDy=0;fontFamily=Verdana;fontSize=18;" edge="1" parent="1" target="S-AW7ORlAw7sAJhm5qHH-33">
          <mxGeometry relative="1" as="geometry">
            <mxPoint x="-340" y="1310" as="sourcePoint" />
          </mxGeometry>
        </mxCell>
        <mxCell id="S-AW7ORlAw7sAJhm5qHH-27" style="edgeStyle=orthogonalEdgeStyle;rounded=0;orthogonalLoop=1;jettySize=auto;html=1;fontFamily=Verdana;fontSize=18;" edge="1" parent="1" target="S-AW7ORlAw7sAJhm5qHH-34">
          <mxGeometry relative="1" as="geometry">
            <mxPoint x="-260" y="1310" as="sourcePoint" />
          </mxGeometry>
        </mxCell>
        <mxCell id="S-AW7ORlAw7sAJhm5qHH-28" style="edgeStyle=orthogonalEdgeStyle;rounded=0;orthogonalLoop=1;jettySize=auto;html=1;fontFamily=Verdana;fontSize=18;" edge="1" parent="1" source="S-AW7ORlAw7sAJhm5qHH-29" target="S-AW7ORlAw7sAJhm5qHH-32">
          <mxGeometry relative="1" as="geometry" />
        </mxCell>
        <mxCell id="S-AW7ORlAw7sAJhm5qHH-29" value="L" style="ellipse;whiteSpace=wrap;html=1;aspect=fixed;fontSize=18;fontStyle=1" vertex="1" parent="1">
          <mxGeometry x="-445" y="1350" width="50" height="50" as="geometry" />
        </mxCell>
        <mxCell id="S-AW7ORlAw7sAJhm5qHH-30" style="edgeStyle=orthogonalEdgeStyle;rounded=0;orthogonalLoop=1;jettySize=auto;html=1;fontFamily=Verdana;fontSize=18;exitX=0.5;exitY=1;exitDx=0;exitDy=0;entryX=0.5;entryY=0;entryDx=0;entryDy=0;" edge="1" parent="1" target="S-AW7ORlAw7sAJhm5qHH-29">
          <mxGeometry relative="1" as="geometry">
            <mxPoint x="-490.0000000000002" y="1360" as="targetPoint" />
            <mxPoint x="-420" y="1310" as="sourcePoint" />
          </mxGeometry>
        </mxCell>
        <mxCell id="S-AW7ORlAw7sAJhm5qHH-31" value="29" style="text;html=1;align=center;verticalAlign=middle;resizable=0;points=[];autosize=1;strokeColor=none;fillColor=none;fontSize=18;fontFamily=Verdana;" vertex="1" parent="1">
          <mxGeometry x="-430" y="1315" width="50" height="40" as="geometry" />
        </mxCell>
        <mxCell id="S-AW7ORlAw7sAJhm5qHH-32" value="V" style="ellipse;whiteSpace=wrap;html=1;aspect=fixed;fontSize=18;fontStyle=1" vertex="1" parent="1">
          <mxGeometry x="-445" y="1430" width="50" height="50" as="geometry" />
        </mxCell>
        <mxCell id="S-AW7ORlAw7sAJhm5qHH-33" value="L" style="ellipse;whiteSpace=wrap;html=1;aspect=fixed;fontSize=18;fontStyle=1" vertex="1" parent="1">
          <mxGeometry x="-365" y="1350" width="50" height="50" as="geometry" />
        </mxCell>
        <mxCell id="S-AW7ORlAw7sAJhm5qHH-34" value="L" style="ellipse;whiteSpace=wrap;html=1;aspect=fixed;fontSize=18;fontStyle=1" vertex="1" parent="1">
          <mxGeometry x="-285" y="1350" width="50" height="50" as="geometry" />
        </mxCell>
        <mxCell id="S-AW7ORlAw7sAJhm5qHH-35" value="V" style="ellipse;whiteSpace=wrap;html=1;aspect=fixed;fontSize=18;fontStyle=1" vertex="1" parent="1">
          <mxGeometry x="-395" y="1500" width="50" height="50" as="geometry" />
        </mxCell>
        <mxCell id="S-AW7ORlAw7sAJhm5qHH-36" value="" style="endArrow=classic;html=1;rounded=0;fontFamily=Verdana;fontSize=18;exitX=0.5;exitY=1;exitDx=0;exitDy=0;entryX=0.407;entryY=-0.007;entryDx=0;entryDy=0;entryPerimeter=0;" edge="1" parent="1" source="S-AW7ORlAw7sAJhm5qHH-32" target="S-AW7ORlAw7sAJhm5qHH-35">
          <mxGeometry width="50" height="50" relative="1" as="geometry">
            <mxPoint x="-365" y="1500" as="sourcePoint" />
            <mxPoint x="-315" y="1450" as="targetPoint" />
          </mxGeometry>
        </mxCell>
        <mxCell id="S-AW7ORlAw7sAJhm5qHH-37" value="" style="endArrow=classic;html=1;rounded=0;fontFamily=Verdana;fontSize=18;entryX=0.5;entryY=0;entryDx=0;entryDy=0;" edge="1" parent="1" source="S-AW7ORlAw7sAJhm5qHH-33" target="S-AW7ORlAw7sAJhm5qHH-35">
          <mxGeometry width="50" height="50" relative="1" as="geometry">
            <mxPoint x="-410" y="1490" as="sourcePoint" />
            <mxPoint x="-365" y="1510" as="targetPoint" />
          </mxGeometry>
        </mxCell>
        <mxCell id="S-AW7ORlAw7sAJhm5qHH-38" value="V" style="ellipse;whiteSpace=wrap;html=1;aspect=fixed;fontSize=18;fontStyle=1" vertex="1" parent="1">
          <mxGeometry x="-325" y="1560" width="50" height="50" as="geometry" />
        </mxCell>
        <mxCell id="S-AW7ORlAw7sAJhm5qHH-39" value="" style="endArrow=classic;html=1;rounded=0;fontFamily=Verdana;fontSize=18;entryX=0.407;entryY=-0.007;entryDx=0;entryDy=0;entryPerimeter=0;exitX=1;exitY=1;exitDx=0;exitDy=0;" edge="1" parent="1" source="S-AW7ORlAw7sAJhm5qHH-35" target="S-AW7ORlAw7sAJhm5qHH-38">
          <mxGeometry width="50" height="50" relative="1" as="geometry">
            <mxPoint x="-315" y="1521" as="sourcePoint" />
            <mxPoint x="-210" y="1491" as="targetPoint" />
          </mxGeometry>
        </mxCell>
        <mxCell id="S-AW7ORlAw7sAJhm5qHH-40" value="" style="endArrow=classic;html=1;rounded=0;fontFamily=Verdana;fontSize=18;entryX=0.5;entryY=0;entryDx=0;entryDy=0;exitX=0.5;exitY=1;exitDx=0;exitDy=0;" edge="1" parent="1" source="S-AW7ORlAw7sAJhm5qHH-34" target="S-AW7ORlAw7sAJhm5qHH-38">
          <mxGeometry width="50" height="50" relative="1" as="geometry">
            <mxPoint x="-255" y="1410" as="sourcePoint" />
            <mxPoint x="-260" y="1551" as="targetPoint" />
          </mxGeometry>
        </mxCell>
        <mxCell id="S-AW7ORlAw7sAJhm5qHH-41" value="29" style="text;html=1;align=center;verticalAlign=middle;resizable=0;points=[];autosize=1;strokeColor=none;fillColor=none;fontSize=18;fontFamily=Verdana;" vertex="1" parent="1">
          <mxGeometry x="-350" y="1315" width="50" height="40" as="geometry" />
        </mxCell>
        <mxCell id="S-AW7ORlAw7sAJhm5qHH-42" value="29" style="text;html=1;align=center;verticalAlign=middle;resizable=0;points=[];autosize=1;strokeColor=none;fillColor=none;fontSize=18;fontFamily=Verdana;" vertex="1" parent="1">
          <mxGeometry x="-270" y="1315" width="50" height="40" as="geometry" />
        </mxCell>
        <mxCell id="S-AW7ORlAw7sAJhm5qHH-43" value="16" style="text;html=1;align=center;verticalAlign=middle;resizable=0;points=[];autosize=1;strokeColor=none;fillColor=none;fontSize=18;fontFamily=Verdana;" vertex="1" parent="1">
          <mxGeometry x="-430" y="1395" width="50" height="40" as="geometry" />
        </mxCell>
        <mxCell id="S-AW7ORlAw7sAJhm5qHH-44" value="17" style="text;html=1;align=center;verticalAlign=middle;resizable=0;points=[];autosize=1;strokeColor=none;fillColor=none;fontSize=18;fontFamily=Verdana;" vertex="1" parent="1">
          <mxGeometry x="-410" y="1455" width="50" height="40" as="geometry" />
        </mxCell>
        <mxCell id="S-AW7ORlAw7sAJhm5qHH-45" value="17" style="text;html=1;align=center;verticalAlign=middle;resizable=0;points=[];autosize=1;strokeColor=none;fillColor=none;fontSize=18;fontFamily=Verdana;" vertex="1" parent="1">
          <mxGeometry x="-350" y="1515" width="50" height="40" as="geometry" />
        </mxCell>
        <mxCell id="S-AW7ORlAw7sAJhm5qHH-46" style="edgeStyle=orthogonalEdgeStyle;rounded=0;orthogonalLoop=1;jettySize=auto;html=1;entryX=0.5;entryY=0;entryDx=0;entryDy=0;fontFamily=Verdana;fontSize=18;" edge="1" parent="1" target="S-AW7ORlAw7sAJhm5qHH-53">
          <mxGeometry relative="1" as="geometry">
            <mxPoint x="-20" y="1310" as="sourcePoint" />
          </mxGeometry>
        </mxCell>
        <mxCell id="S-AW7ORlAw7sAJhm5qHH-47" style="edgeStyle=orthogonalEdgeStyle;rounded=0;orthogonalLoop=1;jettySize=auto;html=1;fontFamily=Verdana;fontSize=18;" edge="1" parent="1" target="S-AW7ORlAw7sAJhm5qHH-54">
          <mxGeometry relative="1" as="geometry">
            <mxPoint x="60" y="1310" as="sourcePoint" />
          </mxGeometry>
        </mxCell>
        <mxCell id="S-AW7ORlAw7sAJhm5qHH-48" style="edgeStyle=orthogonalEdgeStyle;rounded=0;orthogonalLoop=1;jettySize=auto;html=1;fontFamily=Verdana;fontSize=18;" edge="1" parent="1" source="S-AW7ORlAw7sAJhm5qHH-49" target="S-AW7ORlAw7sAJhm5qHH-52">
          <mxGeometry relative="1" as="geometry" />
        </mxCell>
        <mxCell id="S-AW7ORlAw7sAJhm5qHH-49" value="L" style="ellipse;whiteSpace=wrap;html=1;aspect=fixed;fontSize=18;fontStyle=1" vertex="1" parent="1">
          <mxGeometry x="-125" y="1350" width="50" height="50" as="geometry" />
        </mxCell>
        <mxCell id="S-AW7ORlAw7sAJhm5qHH-50" style="edgeStyle=orthogonalEdgeStyle;rounded=0;orthogonalLoop=1;jettySize=auto;html=1;fontFamily=Verdana;fontSize=18;exitX=0.5;exitY=1;exitDx=0;exitDy=0;entryX=0.5;entryY=0;entryDx=0;entryDy=0;" edge="1" parent="1" target="S-AW7ORlAw7sAJhm5qHH-49">
          <mxGeometry relative="1" as="geometry">
            <mxPoint x="-170.00000000000023" y="1360" as="targetPoint" />
            <mxPoint x="-100" y="1310" as="sourcePoint" />
          </mxGeometry>
        </mxCell>
        <mxCell id="S-AW7ORlAw7sAJhm5qHH-51" value="29" style="text;html=1;align=center;verticalAlign=middle;resizable=0;points=[];autosize=1;strokeColor=none;fillColor=none;fontSize=18;fontFamily=Verdana;" vertex="1" parent="1">
          <mxGeometry x="-110" y="1315" width="50" height="40" as="geometry" />
        </mxCell>
        <mxCell id="S-AW7ORlAw7sAJhm5qHH-52" value="V" style="ellipse;whiteSpace=wrap;html=1;aspect=fixed;fontSize=18;fontStyle=1" vertex="1" parent="1">
          <mxGeometry x="-125" y="1430" width="50" height="50" as="geometry" />
        </mxCell>
        <mxCell id="S-AW7ORlAw7sAJhm5qHH-53" value="L" style="ellipse;whiteSpace=wrap;html=1;aspect=fixed;fontSize=18;fontStyle=1" vertex="1" parent="1">
          <mxGeometry x="-45" y="1350" width="50" height="50" as="geometry" />
        </mxCell>
        <mxCell id="S-AW7ORlAw7sAJhm5qHH-54" value="L" style="ellipse;whiteSpace=wrap;html=1;aspect=fixed;fontSize=18;fontStyle=1" vertex="1" parent="1">
          <mxGeometry x="35" y="1350" width="50" height="50" as="geometry" />
        </mxCell>
        <mxCell id="S-AW7ORlAw7sAJhm5qHH-55" value="V" style="ellipse;whiteSpace=wrap;html=1;aspect=fixed;fontSize=18;fontStyle=1" vertex="1" parent="1">
          <mxGeometry x="-75" y="1500" width="50" height="50" as="geometry" />
        </mxCell>
        <mxCell id="S-AW7ORlAw7sAJhm5qHH-56" value="" style="endArrow=classic;html=1;rounded=0;fontFamily=Verdana;fontSize=18;exitX=0.5;exitY=1;exitDx=0;exitDy=0;entryX=0.407;entryY=-0.007;entryDx=0;entryDy=0;entryPerimeter=0;" edge="1" parent="1" source="S-AW7ORlAw7sAJhm5qHH-52" target="S-AW7ORlAw7sAJhm5qHH-55">
          <mxGeometry width="50" height="50" relative="1" as="geometry">
            <mxPoint x="-45" y="1500" as="sourcePoint" />
            <mxPoint x="5" y="1450" as="targetPoint" />
          </mxGeometry>
        </mxCell>
        <mxCell id="S-AW7ORlAw7sAJhm5qHH-57" value="" style="endArrow=classic;html=1;rounded=0;fontFamily=Verdana;fontSize=18;entryX=0.5;entryY=0;entryDx=0;entryDy=0;" edge="1" parent="1" source="S-AW7ORlAw7sAJhm5qHH-53" target="S-AW7ORlAw7sAJhm5qHH-55">
          <mxGeometry width="50" height="50" relative="1" as="geometry">
            <mxPoint x="-90" y="1490" as="sourcePoint" />
            <mxPoint x="-45" y="1510" as="targetPoint" />
          </mxGeometry>
        </mxCell>
        <mxCell id="S-AW7ORlAw7sAJhm5qHH-146" style="edgeStyle=orthogonalEdgeStyle;rounded=0;orthogonalLoop=1;jettySize=auto;html=1;entryX=0.5;entryY=0;entryDx=0;entryDy=0;fontFamily=Helvetica;fontSize=18;fontColor=default;" edge="1" parent="1" source="S-AW7ORlAw7sAJhm5qHH-58" target="S-AW7ORlAw7sAJhm5qHH-145">
          <mxGeometry relative="1" as="geometry">
            <Array as="points">
              <mxPoint x="20" y="2100" />
              <mxPoint x="300" y="2100" />
            </Array>
          </mxGeometry>
        </mxCell>
        <mxCell id="S-AW7ORlAw7sAJhm5qHH-58" value="V" style="ellipse;whiteSpace=wrap;html=1;aspect=fixed;fontSize=18;fontStyle=1" vertex="1" parent="1">
          <mxGeometry x="-5" y="1560" width="50" height="50" as="geometry" />
        </mxCell>
        <mxCell id="S-AW7ORlAw7sAJhm5qHH-59" value="" style="endArrow=classic;html=1;rounded=0;fontFamily=Verdana;fontSize=18;entryX=0.407;entryY=-0.007;entryDx=0;entryDy=0;entryPerimeter=0;exitX=1;exitY=1;exitDx=0;exitDy=0;" edge="1" parent="1" source="S-AW7ORlAw7sAJhm5qHH-55" target="S-AW7ORlAw7sAJhm5qHH-58">
          <mxGeometry width="50" height="50" relative="1" as="geometry">
            <mxPoint x="5" y="1521" as="sourcePoint" />
            <mxPoint x="110" y="1491" as="targetPoint" />
          </mxGeometry>
        </mxCell>
        <mxCell id="S-AW7ORlAw7sAJhm5qHH-60" value="" style="endArrow=classic;html=1;rounded=0;fontFamily=Verdana;fontSize=18;entryX=0.5;entryY=0;entryDx=0;entryDy=0;exitX=0.5;exitY=1;exitDx=0;exitDy=0;" edge="1" parent="1" source="S-AW7ORlAw7sAJhm5qHH-54" target="S-AW7ORlAw7sAJhm5qHH-58">
          <mxGeometry width="50" height="50" relative="1" as="geometry">
            <mxPoint x="65" y="1410" as="sourcePoint" />
            <mxPoint x="60" y="1551" as="targetPoint" />
          </mxGeometry>
        </mxCell>
        <mxCell id="S-AW7ORlAw7sAJhm5qHH-61" value="29" style="text;html=1;align=center;verticalAlign=middle;resizable=0;points=[];autosize=1;strokeColor=none;fillColor=none;fontSize=18;fontFamily=Verdana;" vertex="1" parent="1">
          <mxGeometry x="-30" y="1315" width="50" height="40" as="geometry" />
        </mxCell>
        <mxCell id="S-AW7ORlAw7sAJhm5qHH-62" value="29" style="text;html=1;align=center;verticalAlign=middle;resizable=0;points=[];autosize=1;strokeColor=none;fillColor=none;fontSize=18;fontFamily=Verdana;" vertex="1" parent="1">
          <mxGeometry x="50" y="1315" width="50" height="40" as="geometry" />
        </mxCell>
        <mxCell id="S-AW7ORlAw7sAJhm5qHH-63" value="16" style="text;html=1;align=center;verticalAlign=middle;resizable=0;points=[];autosize=1;strokeColor=none;fillColor=none;fontSize=18;fontFamily=Verdana;" vertex="1" parent="1">
          <mxGeometry x="-110" y="1395" width="50" height="40" as="geometry" />
        </mxCell>
        <mxCell id="S-AW7ORlAw7sAJhm5qHH-64" value="17" style="text;html=1;align=center;verticalAlign=middle;resizable=0;points=[];autosize=1;strokeColor=none;fillColor=none;fontSize=18;fontFamily=Verdana;" vertex="1" parent="1">
          <mxGeometry x="-90" y="1455" width="50" height="40" as="geometry" />
        </mxCell>
        <mxCell id="S-AW7ORlAw7sAJhm5qHH-65" value="17" style="text;html=1;align=center;verticalAlign=middle;resizable=0;points=[];autosize=1;strokeColor=none;fillColor=none;fontSize=18;fontFamily=Verdana;" vertex="1" parent="1">
          <mxGeometry x="-30" y="1515" width="50" height="40" as="geometry" />
        </mxCell>
        <mxCell id="S-AW7ORlAw7sAJhm5qHH-66" style="edgeStyle=orthogonalEdgeStyle;rounded=0;orthogonalLoop=1;jettySize=auto;html=1;fontFamily=Verdana;fontSize=18;" edge="1" parent="1" target="S-AW7ORlAw7sAJhm5qHH-68">
          <mxGeometry relative="1" as="geometry">
            <mxPoint x="220" y="1310" as="sourcePoint" />
          </mxGeometry>
        </mxCell>
        <mxCell id="S-AW7ORlAw7sAJhm5qHH-67" style="edgeStyle=orthogonalEdgeStyle;rounded=0;orthogonalLoop=1;jettySize=auto;html=1;entryX=0.5;entryY=0;entryDx=0;entryDy=0;fontFamily=Verdana;fontSize=18;" edge="1" parent="1" source="S-AW7ORlAw7sAJhm5qHH-68" target="S-AW7ORlAw7sAJhm5qHH-70">
          <mxGeometry relative="1" as="geometry" />
        </mxCell>
        <mxCell id="S-AW7ORlAw7sAJhm5qHH-68" value="D" style="ellipse;whiteSpace=wrap;html=1;aspect=fixed;fontSize=18;fontStyle=1" vertex="1" parent="1">
          <mxGeometry x="195" y="1350" width="50" height="50" as="geometry" />
        </mxCell>
        <mxCell id="S-AW7ORlAw7sAJhm5qHH-69" value="30" style="text;html=1;align=center;verticalAlign=middle;resizable=0;points=[];autosize=1;strokeColor=none;fillColor=none;fontSize=18;fontFamily=Verdana;" vertex="1" parent="1">
          <mxGeometry x="210" y="1315" width="50" height="40" as="geometry" />
        </mxCell>
        <mxCell id="S-AW7ORlAw7sAJhm5qHH-70" value="I" style="ellipse;whiteSpace=wrap;html=1;aspect=fixed;fontSize=18;fontStyle=1" vertex="1" parent="1">
          <mxGeometry x="195" y="1425" width="50" height="50" as="geometry" />
        </mxCell>
        <mxCell id="S-AW7ORlAw7sAJhm5qHH-71" style="edgeStyle=orthogonalEdgeStyle;rounded=0;orthogonalLoop=1;jettySize=auto;html=1;entryX=0.5;entryY=0;entryDx=0;entryDy=0;fontFamily=Verdana;fontSize=18;" edge="1" parent="1" source="S-AW7ORlAw7sAJhm5qHH-72" target="S-AW7ORlAw7sAJhm5qHH-74">
          <mxGeometry relative="1" as="geometry" />
        </mxCell>
        <mxCell id="S-AW7ORlAw7sAJhm5qHH-72" value="R" style="ellipse;whiteSpace=wrap;html=1;aspect=fixed;fontSize=18;fontStyle=1" vertex="1" parent="1">
          <mxGeometry x="195" y="1505" width="50" height="50" as="geometry" />
        </mxCell>
        <mxCell id="S-AW7ORlAw7sAJhm5qHH-73" value="" style="endArrow=classic;html=1;rounded=0;fontFamily=Verdana;fontSize=18;entryX=0.5;entryY=0;entryDx=0;entryDy=0;exitX=0.5;exitY=1;exitDx=0;exitDy=0;" edge="1" parent="1" source="S-AW7ORlAw7sAJhm5qHH-70" target="S-AW7ORlAw7sAJhm5qHH-72">
          <mxGeometry width="50" height="50" relative="1" as="geometry">
            <mxPoint x="159.99999999999977" y="1475" as="sourcePoint" />
            <mxPoint x="170" y="1435" as="targetPoint" />
          </mxGeometry>
        </mxCell>
        <mxCell id="S-AW7ORlAw7sAJhm5qHH-74" value="H" style="ellipse;whiteSpace=wrap;html=1;aspect=fixed;fontSize=18;fontStyle=1" vertex="1" parent="1">
          <mxGeometry x="195" y="1575" width="50" height="50" as="geometry" />
        </mxCell>
        <mxCell id="S-AW7ORlAw7sAJhm5qHH-75" style="edgeStyle=orthogonalEdgeStyle;rounded=0;orthogonalLoop=1;jettySize=auto;html=1;fontFamily=Verdana;fontSize=18;" edge="1" parent="1" target="S-AW7ORlAw7sAJhm5qHH-77">
          <mxGeometry relative="1" as="geometry">
            <mxPoint x="620" y="1310" as="sourcePoint" />
          </mxGeometry>
        </mxCell>
        <mxCell id="S-AW7ORlAw7sAJhm5qHH-76" style="edgeStyle=orthogonalEdgeStyle;rounded=0;orthogonalLoop=1;jettySize=auto;html=1;entryX=0.5;entryY=0;entryDx=0;entryDy=0;fontFamily=Verdana;fontSize=18;" edge="1" parent="1" source="S-AW7ORlAw7sAJhm5qHH-77" target="S-AW7ORlAw7sAJhm5qHH-79">
          <mxGeometry relative="1" as="geometry" />
        </mxCell>
        <mxCell id="S-AW7ORlAw7sAJhm5qHH-77" value="D" style="ellipse;whiteSpace=wrap;html=1;aspect=fixed;fontSize=18;fontStyle=1" vertex="1" parent="1">
          <mxGeometry x="595" y="1350" width="50" height="50" as="geometry" />
        </mxCell>
        <mxCell id="S-AW7ORlAw7sAJhm5qHH-78" value="30" style="text;html=1;align=center;verticalAlign=middle;resizable=0;points=[];autosize=1;strokeColor=none;fillColor=none;fontSize=18;fontFamily=Verdana;" vertex="1" parent="1">
          <mxGeometry x="610" y="1315" width="50" height="40" as="geometry" />
        </mxCell>
        <mxCell id="S-AW7ORlAw7sAJhm5qHH-79" value="I" style="ellipse;whiteSpace=wrap;html=1;aspect=fixed;fontSize=18;fontStyle=1" vertex="1" parent="1">
          <mxGeometry x="595" y="1425" width="50" height="50" as="geometry" />
        </mxCell>
        <mxCell id="S-AW7ORlAw7sAJhm5qHH-80" style="edgeStyle=orthogonalEdgeStyle;rounded=0;orthogonalLoop=1;jettySize=auto;html=1;entryX=0.5;entryY=0;entryDx=0;entryDy=0;fontFamily=Verdana;fontSize=18;" edge="1" parent="1" source="S-AW7ORlAw7sAJhm5qHH-81" target="S-AW7ORlAw7sAJhm5qHH-83">
          <mxGeometry relative="1" as="geometry" />
        </mxCell>
        <mxCell id="S-AW7ORlAw7sAJhm5qHH-81" value="R" style="ellipse;whiteSpace=wrap;html=1;aspect=fixed;fontSize=18;fontStyle=1" vertex="1" parent="1">
          <mxGeometry x="595" y="1505" width="50" height="50" as="geometry" />
        </mxCell>
        <mxCell id="S-AW7ORlAw7sAJhm5qHH-82" value="" style="endArrow=classic;html=1;rounded=0;fontFamily=Verdana;fontSize=18;entryX=0.5;entryY=0;entryDx=0;entryDy=0;exitX=0.5;exitY=1;exitDx=0;exitDy=0;" edge="1" parent="1" source="S-AW7ORlAw7sAJhm5qHH-79" target="S-AW7ORlAw7sAJhm5qHH-81">
          <mxGeometry width="50" height="50" relative="1" as="geometry">
            <mxPoint x="560" y="1475" as="sourcePoint" />
            <mxPoint x="570" y="1435" as="targetPoint" />
          </mxGeometry>
        </mxCell>
        <mxCell id="S-AW7ORlAw7sAJhm5qHH-83" value="H" style="ellipse;whiteSpace=wrap;html=1;aspect=fixed;fontSize=18;fontStyle=1" vertex="1" parent="1">
          <mxGeometry x="595" y="1575" width="50" height="50" as="geometry" />
        </mxCell>
        <mxCell id="S-AW7ORlAw7sAJhm5qHH-84" style="edgeStyle=orthogonalEdgeStyle;rounded=0;orthogonalLoop=1;jettySize=auto;html=1;fontFamily=Verdana;fontSize=18;" edge="1" parent="1" target="S-AW7ORlAw7sAJhm5qHH-86">
          <mxGeometry relative="1" as="geometry">
            <mxPoint x="940" y="1310" as="sourcePoint" />
          </mxGeometry>
        </mxCell>
        <mxCell id="S-AW7ORlAw7sAJhm5qHH-85" style="edgeStyle=orthogonalEdgeStyle;rounded=0;orthogonalLoop=1;jettySize=auto;html=1;entryX=0.5;entryY=0;entryDx=0;entryDy=0;fontFamily=Verdana;fontSize=18;" edge="1" parent="1" source="S-AW7ORlAw7sAJhm5qHH-86" target="S-AW7ORlAw7sAJhm5qHH-88">
          <mxGeometry relative="1" as="geometry" />
        </mxCell>
        <mxCell id="S-AW7ORlAw7sAJhm5qHH-86" value="D" style="ellipse;whiteSpace=wrap;html=1;aspect=fixed;fontSize=18;fontStyle=1" vertex="1" parent="1">
          <mxGeometry x="915" y="1350" width="50" height="50" as="geometry" />
        </mxCell>
        <mxCell id="S-AW7ORlAw7sAJhm5qHH-87" value="30" style="text;html=1;align=center;verticalAlign=middle;resizable=0;points=[];autosize=1;strokeColor=none;fillColor=none;fontSize=18;fontFamily=Verdana;" vertex="1" parent="1">
          <mxGeometry x="930" y="1315" width="50" height="40" as="geometry" />
        </mxCell>
        <mxCell id="S-AW7ORlAw7sAJhm5qHH-88" value="I" style="ellipse;whiteSpace=wrap;html=1;aspect=fixed;fontSize=18;fontStyle=1" vertex="1" parent="1">
          <mxGeometry x="915" y="1425" width="50" height="50" as="geometry" />
        </mxCell>
        <mxCell id="S-AW7ORlAw7sAJhm5qHH-89" style="edgeStyle=orthogonalEdgeStyle;rounded=0;orthogonalLoop=1;jettySize=auto;html=1;entryX=0.5;entryY=0;entryDx=0;entryDy=0;fontFamily=Verdana;fontSize=18;" edge="1" parent="1" source="S-AW7ORlAw7sAJhm5qHH-90" target="S-AW7ORlAw7sAJhm5qHH-92">
          <mxGeometry relative="1" as="geometry" />
        </mxCell>
        <mxCell id="S-AW7ORlAw7sAJhm5qHH-90" value="R" style="ellipse;whiteSpace=wrap;html=1;aspect=fixed;fontSize=18;fontStyle=1" vertex="1" parent="1">
          <mxGeometry x="915" y="1505" width="50" height="50" as="geometry" />
        </mxCell>
        <mxCell id="S-AW7ORlAw7sAJhm5qHH-91" value="" style="endArrow=classic;html=1;rounded=0;fontFamily=Verdana;fontSize=18;entryX=0.5;entryY=0;entryDx=0;entryDy=0;exitX=0.5;exitY=1;exitDx=0;exitDy=0;" edge="1" parent="1" source="S-AW7ORlAw7sAJhm5qHH-88" target="S-AW7ORlAw7sAJhm5qHH-90">
          <mxGeometry width="50" height="50" relative="1" as="geometry">
            <mxPoint x="880" y="1475" as="sourcePoint" />
            <mxPoint x="890" y="1435" as="targetPoint" />
          </mxGeometry>
        </mxCell>
        <mxCell id="S-AW7ORlAw7sAJhm5qHH-92" value="H" style="ellipse;whiteSpace=wrap;html=1;aspect=fixed;fontSize=18;fontStyle=1" vertex="1" parent="1">
          <mxGeometry x="915" y="1575" width="50" height="50" as="geometry" />
        </mxCell>
        <mxCell id="S-AW7ORlAw7sAJhm5qHH-96" value="&lt;font style=&quot;font-size: 18px;&quot;&gt;19&lt;/font&gt;" style="text;html=1;align=center;verticalAlign=middle;resizable=0;points=[];autosize=1;strokeColor=none;fillColor=none;fontSize=18;fontFamily=Verdana;" vertex="1" parent="1">
          <mxGeometry x="220" y="1455" width="50" height="40" as="geometry" />
        </mxCell>
        <mxCell id="S-AW7ORlAw7sAJhm5qHH-97" value="23" style="text;html=1;align=center;verticalAlign=middle;resizable=0;points=[];autosize=1;strokeColor=none;fillColor=none;fontSize=18;fontFamily=Verdana;" vertex="1" parent="1">
          <mxGeometry x="220" y="1385" width="50" height="40" as="geometry" />
        </mxCell>
        <mxCell id="S-AW7ORlAw7sAJhm5qHH-98" value="13" style="text;html=1;align=center;verticalAlign=middle;resizable=0;points=[];autosize=1;strokeColor=none;fillColor=none;fontSize=18;fontFamily=Verdana;" vertex="1" parent="1">
          <mxGeometry x="220" y="1540" width="50" height="40" as="geometry" />
        </mxCell>
        <mxCell id="S-AW7ORlAw7sAJhm5qHH-99" value="&lt;font style=&quot;font-size: 18px;&quot;&gt;19&lt;/font&gt;" style="text;html=1;align=center;verticalAlign=middle;resizable=0;points=[];autosize=1;strokeColor=none;fillColor=none;fontSize=18;fontFamily=Verdana;" vertex="1" parent="1">
          <mxGeometry x="620" y="1455" width="50" height="40" as="geometry" />
        </mxCell>
        <mxCell id="S-AW7ORlAw7sAJhm5qHH-100" value="23" style="text;html=1;align=center;verticalAlign=middle;resizable=0;points=[];autosize=1;strokeColor=none;fillColor=none;fontSize=18;fontFamily=Verdana;" vertex="1" parent="1">
          <mxGeometry x="620" y="1385" width="50" height="40" as="geometry" />
        </mxCell>
        <mxCell id="S-AW7ORlAw7sAJhm5qHH-101" value="13" style="text;html=1;align=center;verticalAlign=middle;resizable=0;points=[];autosize=1;strokeColor=none;fillColor=none;fontSize=18;fontFamily=Verdana;" vertex="1" parent="1">
          <mxGeometry x="620" y="1540" width="50" height="40" as="geometry" />
        </mxCell>
        <mxCell id="S-AW7ORlAw7sAJhm5qHH-102" value="&lt;font style=&quot;font-size: 18px;&quot;&gt;19&lt;/font&gt;" style="text;html=1;align=center;verticalAlign=middle;resizable=0;points=[];autosize=1;strokeColor=none;fillColor=none;fontSize=18;fontFamily=Verdana;" vertex="1" parent="1">
          <mxGeometry x="940" y="1465" width="50" height="40" as="geometry" />
        </mxCell>
        <mxCell id="S-AW7ORlAw7sAJhm5qHH-103" value="23" style="text;html=1;align=center;verticalAlign=middle;resizable=0;points=[];autosize=1;strokeColor=none;fillColor=none;fontSize=18;fontFamily=Verdana;" vertex="1" parent="1">
          <mxGeometry x="940" y="1395" width="50" height="40" as="geometry" />
        </mxCell>
        <mxCell id="S-AW7ORlAw7sAJhm5qHH-104" value="13" style="text;html=1;align=center;verticalAlign=middle;resizable=0;points=[];autosize=1;strokeColor=none;fillColor=none;fontSize=18;fontFamily=Verdana;" vertex="1" parent="1">
          <mxGeometry x="940" y="1550" width="50" height="40" as="geometry" />
        </mxCell>
        <mxCell id="S-AW7ORlAw7sAJhm5qHH-105" style="edgeStyle=orthogonalEdgeStyle;rounded=0;orthogonalLoop=1;jettySize=auto;html=1;fontFamily=Verdana;fontSize=18;" edge="1" parent="1" target="S-AW7ORlAw7sAJhm5qHH-107">
          <mxGeometry relative="1" as="geometry">
            <mxPoint x="220" y="1625" as="sourcePoint" />
          </mxGeometry>
        </mxCell>
        <mxCell id="S-AW7ORlAw7sAJhm5qHH-106" style="edgeStyle=orthogonalEdgeStyle;rounded=0;orthogonalLoop=1;jettySize=auto;html=1;entryX=0.5;entryY=0;entryDx=0;entryDy=0;fontFamily=Verdana;fontSize=18;" edge="1" parent="1" source="S-AW7ORlAw7sAJhm5qHH-107" target="S-AW7ORlAw7sAJhm5qHH-109">
          <mxGeometry relative="1" as="geometry" />
        </mxCell>
        <mxCell id="S-AW7ORlAw7sAJhm5qHH-107" value="U" style="ellipse;whiteSpace=wrap;html=1;aspect=fixed;fontSize=18;fontStyle=1" vertex="1" parent="1">
          <mxGeometry x="195" y="1665" width="50" height="50" as="geometry" />
        </mxCell>
        <mxCell id="S-AW7ORlAw7sAJhm5qHH-108" value="9" style="text;html=1;align=center;verticalAlign=middle;resizable=0;points=[];autosize=1;strokeColor=none;fillColor=none;fontSize=18;fontFamily=Verdana;" vertex="1" parent="1">
          <mxGeometry x="220" y="1630" width="30" height="40" as="geometry" />
        </mxCell>
        <mxCell id="S-AW7ORlAw7sAJhm5qHH-109" value="T" style="ellipse;whiteSpace=wrap;html=1;aspect=fixed;fontSize=18;fontStyle=1" vertex="1" parent="1">
          <mxGeometry x="195" y="1740" width="50" height="50" as="geometry" />
        </mxCell>
        <mxCell id="S-AW7ORlAw7sAJhm5qHH-110" style="edgeStyle=orthogonalEdgeStyle;rounded=0;orthogonalLoop=1;jettySize=auto;html=1;entryX=0.5;entryY=0;entryDx=0;entryDy=0;fontFamily=Verdana;fontSize=18;" edge="1" parent="1" source="S-AW7ORlAw7sAJhm5qHH-111" target="S-AW7ORlAw7sAJhm5qHH-113">
          <mxGeometry relative="1" as="geometry" />
        </mxCell>
        <mxCell id="S-AW7ORlAw7sAJhm5qHH-111" value="A" style="ellipse;whiteSpace=wrap;html=1;aspect=fixed;fontSize=18;fontStyle=1" vertex="1" parent="1">
          <mxGeometry x="195" y="1820" width="50" height="50" as="geometry" />
        </mxCell>
        <mxCell id="S-AW7ORlAw7sAJhm5qHH-112" value="" style="endArrow=classic;html=1;rounded=0;fontFamily=Verdana;fontSize=18;entryX=0.5;entryY=0;entryDx=0;entryDy=0;exitX=0.5;exitY=1;exitDx=0;exitDy=0;" edge="1" parent="1" source="S-AW7ORlAw7sAJhm5qHH-109" target="S-AW7ORlAw7sAJhm5qHH-111">
          <mxGeometry width="50" height="50" relative="1" as="geometry">
            <mxPoint x="159.99999999999977" y="1790" as="sourcePoint" />
            <mxPoint x="170" y="1750" as="targetPoint" />
          </mxGeometry>
        </mxCell>
        <mxCell id="S-AW7ORlAw7sAJhm5qHH-142" style="edgeStyle=orthogonalEdgeStyle;rounded=0;orthogonalLoop=1;jettySize=auto;html=1;entryX=0.5;entryY=0;entryDx=0;entryDy=0;fontFamily=Helvetica;fontSize=18;fontColor=default;" edge="1" parent="1" source="S-AW7ORlAw7sAJhm5qHH-113" target="S-AW7ORlAw7sAJhm5qHH-138">
          <mxGeometry relative="1" as="geometry">
            <Array as="points">
              <mxPoint x="220" y="1970" />
              <mxPoint x="300" y="1970" />
            </Array>
          </mxGeometry>
        </mxCell>
        <mxCell id="S-AW7ORlAw7sAJhm5qHH-113" value="B" style="ellipse;whiteSpace=wrap;html=1;aspect=fixed;fontSize=18;fontStyle=1" vertex="1" parent="1">
          <mxGeometry x="195" y="1890" width="50" height="50" as="geometry" />
        </mxCell>
        <mxCell id="S-AW7ORlAw7sAJhm5qHH-114" value="&lt;font style=&quot;font-size: 18px;&quot;&gt;4&lt;/font&gt;" style="text;html=1;align=center;verticalAlign=middle;resizable=0;points=[];autosize=1;strokeColor=none;fillColor=none;fontSize=18;fontFamily=Verdana;" vertex="1" parent="1">
          <mxGeometry x="230" y="1770" width="30" height="40" as="geometry" />
        </mxCell>
        <mxCell id="S-AW7ORlAw7sAJhm5qHH-115" value="7" style="text;html=1;align=center;verticalAlign=middle;resizable=0;points=[];autosize=1;strokeColor=none;fillColor=none;fontSize=18;fontFamily=Verdana;" vertex="1" parent="1">
          <mxGeometry x="230" y="1700" width="30" height="40" as="geometry" />
        </mxCell>
        <mxCell id="S-AW7ORlAw7sAJhm5qHH-116" value="2" style="text;html=1;align=center;verticalAlign=middle;resizable=0;points=[];autosize=1;strokeColor=none;fillColor=none;fontSize=18;fontFamily=Verdana;" vertex="1" parent="1">
          <mxGeometry x="230" y="1855" width="30" height="40" as="geometry" />
        </mxCell>
        <mxCell id="S-AW7ORlAw7sAJhm5qHH-121" style="edgeStyle=orthogonalEdgeStyle;rounded=0;orthogonalLoop=1;jettySize=auto;html=1;fontFamily=Verdana;fontSize=18;" edge="1" parent="1" source="S-AW7ORlAw7sAJhm5qHH-122" target="S-AW7ORlAw7sAJhm5qHH-124">
          <mxGeometry relative="1" as="geometry" />
        </mxCell>
        <mxCell id="S-AW7ORlAw7sAJhm5qHH-122" value="L" style="ellipse;whiteSpace=wrap;html=1;aspect=fixed;fontSize=18;fontStyle=1" vertex="1" parent="1">
          <mxGeometry x="355" y="1350" width="50" height="50" as="geometry" />
        </mxCell>
        <mxCell id="S-AW7ORlAw7sAJhm5qHH-123" style="edgeStyle=orthogonalEdgeStyle;rounded=0;orthogonalLoop=1;jettySize=auto;html=1;fontFamily=Verdana;fontSize=18;exitX=0.5;exitY=1;exitDx=0;exitDy=0;entryX=0.5;entryY=0;entryDx=0;entryDy=0;" edge="1" parent="1" target="S-AW7ORlAw7sAJhm5qHH-122">
          <mxGeometry relative="1" as="geometry">
            <mxPoint x="309.9999999999998" y="1360" as="targetPoint" />
            <mxPoint x="380" y="1310" as="sourcePoint" />
          </mxGeometry>
        </mxCell>
        <mxCell id="S-AW7ORlAw7sAJhm5qHH-124" value="V" style="ellipse;whiteSpace=wrap;html=1;aspect=fixed;fontSize=18;fontStyle=1" vertex="1" parent="1">
          <mxGeometry x="355" y="1430" width="50" height="50" as="geometry" />
        </mxCell>
        <mxCell id="S-AW7ORlAw7sAJhm5qHH-125" value="29" style="text;html=1;align=center;verticalAlign=middle;resizable=0;points=[];autosize=1;strokeColor=none;fillColor=none;fontSize=18;fontFamily=Verdana;" vertex="1" parent="1">
          <mxGeometry x="370" y="1315" width="50" height="40" as="geometry" />
        </mxCell>
        <mxCell id="S-AW7ORlAw7sAJhm5qHH-126" value="16" style="text;html=1;align=center;verticalAlign=middle;resizable=0;points=[];autosize=1;strokeColor=none;fillColor=none;fontSize=18;fontFamily=Verdana;" vertex="1" parent="1">
          <mxGeometry x="370" y="1395" width="50" height="40" as="geometry" />
        </mxCell>
        <mxCell id="S-AW7ORlAw7sAJhm5qHH-127" style="edgeStyle=orthogonalEdgeStyle;rounded=0;orthogonalLoop=1;jettySize=auto;html=1;entryX=0.5;entryY=0;entryDx=0;entryDy=0;fontFamily=Verdana;fontSize=18;exitX=0.5;exitY=1;exitDx=0;exitDy=0;" edge="1" parent="1" source="S-AW7ORlAw7sAJhm5qHH-124" target="S-AW7ORlAw7sAJhm5qHH-128">
          <mxGeometry relative="1" as="geometry">
            <mxPoint x="380" y="1485" as="sourcePoint" />
          </mxGeometry>
        </mxCell>
        <mxCell id="S-AW7ORlAw7sAJhm5qHH-128" value="H" style="ellipse;whiteSpace=wrap;html=1;aspect=fixed;fontSize=18;fontStyle=1" vertex="1" parent="1">
          <mxGeometry x="355" y="1505" width="50" height="50" as="geometry" />
        </mxCell>
        <mxCell id="S-AW7ORlAw7sAJhm5qHH-129" value="12" style="text;html=1;align=center;verticalAlign=middle;resizable=0;points=[];autosize=1;strokeColor=none;fillColor=none;fontSize=18;fontFamily=Verdana;" vertex="1" parent="1">
          <mxGeometry x="370" y="1470" width="50" height="40" as="geometry" />
        </mxCell>
        <mxCell id="S-AW7ORlAw7sAJhm5qHH-130" style="edgeStyle=orthogonalEdgeStyle;rounded=0;orthogonalLoop=1;jettySize=auto;html=1;fontFamily=Verdana;fontSize=18;" edge="1" parent="1" target="S-AW7ORlAw7sAJhm5qHH-132">
          <mxGeometry relative="1" as="geometry">
            <mxPoint x="380" y="1555" as="sourcePoint" />
          </mxGeometry>
        </mxCell>
        <mxCell id="S-AW7ORlAw7sAJhm5qHH-131" style="edgeStyle=orthogonalEdgeStyle;rounded=0;orthogonalLoop=1;jettySize=auto;html=1;entryX=0.5;entryY=0;entryDx=0;entryDy=0;fontFamily=Verdana;fontSize=18;" edge="1" parent="1" source="S-AW7ORlAw7sAJhm5qHH-132" target="S-AW7ORlAw7sAJhm5qHH-134">
          <mxGeometry relative="1" as="geometry" />
        </mxCell>
        <mxCell id="S-AW7ORlAw7sAJhm5qHH-132" value="U" style="ellipse;whiteSpace=wrap;html=1;aspect=fixed;fontSize=18;fontStyle=1" vertex="1" parent="1">
          <mxGeometry x="355" y="1595" width="50" height="50" as="geometry" />
        </mxCell>
        <mxCell id="S-AW7ORlAw7sAJhm5qHH-133" value="9" style="text;html=1;align=center;verticalAlign=middle;resizable=0;points=[];autosize=1;strokeColor=none;fillColor=none;fontSize=18;fontFamily=Verdana;" vertex="1" parent="1">
          <mxGeometry x="380" y="1560" width="30" height="40" as="geometry" />
        </mxCell>
        <mxCell id="S-AW7ORlAw7sAJhm5qHH-134" value="T" style="ellipse;whiteSpace=wrap;html=1;aspect=fixed;fontSize=18;fontStyle=1" vertex="1" parent="1">
          <mxGeometry x="355" y="1670" width="50" height="50" as="geometry" />
        </mxCell>
        <mxCell id="S-AW7ORlAw7sAJhm5qHH-135" style="edgeStyle=orthogonalEdgeStyle;rounded=0;orthogonalLoop=1;jettySize=auto;html=1;entryX=0.5;entryY=0;entryDx=0;entryDy=0;fontFamily=Verdana;fontSize=18;" edge="1" parent="1" source="S-AW7ORlAw7sAJhm5qHH-136" target="S-AW7ORlAw7sAJhm5qHH-138">
          <mxGeometry relative="1" as="geometry">
            <Array as="points">
              <mxPoint x="380" y="1970" />
              <mxPoint x="300" y="1970" />
            </Array>
          </mxGeometry>
        </mxCell>
        <mxCell id="S-AW7ORlAw7sAJhm5qHH-136" value="A" style="ellipse;whiteSpace=wrap;html=1;aspect=fixed;fontSize=18;fontStyle=1" vertex="1" parent="1">
          <mxGeometry x="355" y="1750" width="50" height="50" as="geometry" />
        </mxCell>
        <mxCell id="S-AW7ORlAw7sAJhm5qHH-137" value="" style="endArrow=classic;html=1;rounded=0;fontFamily=Verdana;fontSize=18;entryX=0.5;entryY=0;entryDx=0;entryDy=0;exitX=0.5;exitY=1;exitDx=0;exitDy=0;" edge="1" parent="1" source="S-AW7ORlAw7sAJhm5qHH-134" target="S-AW7ORlAw7sAJhm5qHH-136">
          <mxGeometry width="50" height="50" relative="1" as="geometry">
            <mxPoint x="319.9999999999998" y="1720" as="sourcePoint" />
            <mxPoint x="330" y="1680" as="targetPoint" />
          </mxGeometry>
        </mxCell>
        <mxCell id="S-AW7ORlAw7sAJhm5qHH-147" style="edgeStyle=orthogonalEdgeStyle;rounded=0;orthogonalLoop=1;jettySize=auto;html=1;fontFamily=Helvetica;fontSize=18;fontColor=default;entryX=0.5;entryY=0;entryDx=0;entryDy=0;" edge="1" parent="1" source="S-AW7ORlAw7sAJhm5qHH-138" target="S-AW7ORlAw7sAJhm5qHH-145">
          <mxGeometry relative="1" as="geometry">
            <mxPoint x="299.99999999999955" y="2140" as="targetPoint" />
          </mxGeometry>
        </mxCell>
        <mxCell id="S-AW7ORlAw7sAJhm5qHH-138" value="B" style="ellipse;whiteSpace=wrap;html=1;aspect=fixed;fontSize=18;fontStyle=1" vertex="1" parent="1">
          <mxGeometry x="275" y="1990" width="50" height="50" as="geometry" />
        </mxCell>
        <mxCell id="S-AW7ORlAw7sAJhm5qHH-139" value="&lt;font style=&quot;font-size: 18px;&quot;&gt;4&lt;/font&gt;" style="text;html=1;align=center;verticalAlign=middle;resizable=0;points=[];autosize=1;strokeColor=none;fillColor=none;fontSize=18;fontFamily=Verdana;" vertex="1" parent="1">
          <mxGeometry x="390" y="1700" width="30" height="40" as="geometry" />
        </mxCell>
        <mxCell id="S-AW7ORlAw7sAJhm5qHH-140" value="7" style="text;html=1;align=center;verticalAlign=middle;resizable=0;points=[];autosize=1;strokeColor=none;fillColor=none;fontSize=18;fontFamily=Verdana;" vertex="1" parent="1">
          <mxGeometry x="390" y="1630" width="30" height="40" as="geometry" />
        </mxCell>
        <mxCell id="S-AW7ORlAw7sAJhm5qHH-141" value="2" style="text;html=1;align=center;verticalAlign=middle;resizable=0;points=[];autosize=1;strokeColor=none;fillColor=none;fontSize=18;fontFamily=Verdana;" vertex="1" parent="1">
          <mxGeometry x="390" y="1785" width="30" height="40" as="geometry" />
        </mxCell>
        <mxCell id="S-AW7ORlAw7sAJhm5qHH-144" value="3" style="text;html=1;align=center;verticalAlign=middle;resizable=0;points=[];autosize=1;strokeColor=none;fillColor=none;fontSize=18;fontFamily=Helvetica;fontColor=default;" vertex="1" parent="1">
          <mxGeometry x="295" y="1935" width="30" height="40" as="geometry" />
        </mxCell>
        <mxCell id="S-AW7ORlAw7sAJhm5qHH-145" value="F" style="ellipse;whiteSpace=wrap;html=1;aspect=fixed;fontSize=18;fontStyle=1" vertex="1" parent="1">
          <mxGeometry x="275" y="2150" width="50" height="50" as="geometry" />
        </mxCell>
        <mxCell id="S-AW7ORlAw7sAJhm5qHH-150" value="15" style="text;html=1;align=center;verticalAlign=middle;resizable=0;points=[];autosize=1;strokeColor=none;fillColor=none;fontSize=18;fontFamily=Helvetica;fontColor=default;" vertex="1" parent="1">
          <mxGeometry x="260" y="2065" width="40" height="40" as="geometry" />
        </mxCell>
        <mxCell id="S-AW7ORlAw7sAJhm5qHH-151" style="edgeStyle=orthogonalEdgeStyle;rounded=0;orthogonalLoop=1;jettySize=auto;html=1;entryX=0.5;entryY=0;entryDx=0;entryDy=0;fontFamily=Verdana;fontSize=18;" edge="1" parent="1" target="S-AW7ORlAw7sAJhm5qHH-153">
          <mxGeometry relative="1" as="geometry">
            <mxPoint x="300" y="2200" as="sourcePoint" />
          </mxGeometry>
        </mxCell>
        <mxCell id="S-AW7ORlAw7sAJhm5qHH-152" style="edgeStyle=orthogonalEdgeStyle;rounded=0;orthogonalLoop=1;jettySize=auto;html=1;fontFamily=Verdana;fontSize=18;" edge="1" parent="1" source="S-AW7ORlAw7sAJhm5qHH-153" target="S-AW7ORlAw7sAJhm5qHH-155">
          <mxGeometry relative="1" as="geometry" />
        </mxCell>
        <mxCell id="S-AW7ORlAw7sAJhm5qHH-153" value="H" style="ellipse;whiteSpace=wrap;html=1;aspect=fixed;fontSize=18;fontStyle=1" vertex="1" parent="1">
          <mxGeometry x="275" y="2220" width="50" height="50" as="geometry" />
        </mxCell>
        <mxCell id="S-AW7ORlAw7sAJhm5qHH-154" style="edgeStyle=orthogonalEdgeStyle;rounded=0;orthogonalLoop=1;jettySize=auto;html=1;entryX=0.5;entryY=0;entryDx=0;entryDy=0;fontFamily=Verdana;fontSize=18;" edge="1" parent="1" source="S-AW7ORlAw7sAJhm5qHH-155" target="S-AW7ORlAw7sAJhm5qHH-157">
          <mxGeometry relative="1" as="geometry" />
        </mxCell>
        <mxCell id="S-AW7ORlAw7sAJhm5qHH-155" value="U" style="ellipse;whiteSpace=wrap;html=1;aspect=fixed;fontSize=18;fontStyle=1" vertex="1" parent="1">
          <mxGeometry x="275" y="2290" width="50" height="50" as="geometry" />
        </mxCell>
        <mxCell id="S-AW7ORlAw7sAJhm5qHH-156" style="edgeStyle=orthogonalEdgeStyle;rounded=0;orthogonalLoop=1;jettySize=auto;html=1;entryX=0.5;entryY=0;entryDx=0;entryDy=0;fontFamily=Verdana;fontSize=18;" edge="1" parent="1" source="S-AW7ORlAw7sAJhm5qHH-157" target="S-AW7ORlAw7sAJhm5qHH-158">
          <mxGeometry relative="1" as="geometry" />
        </mxCell>
        <mxCell id="S-AW7ORlAw7sAJhm5qHH-157" value="T" style="ellipse;whiteSpace=wrap;html=1;aspect=fixed;fontSize=18;fontStyle=1" vertex="1" parent="1">
          <mxGeometry x="275" y="2360" width="50" height="50" as="geometry" />
        </mxCell>
        <mxCell id="S-AW7ORlAw7sAJhm5qHH-158" value="A" style="ellipse;whiteSpace=wrap;html=1;aspect=fixed;fontSize=18;fontStyle=1" vertex="1" parent="1">
          <mxGeometry x="275" y="2430" width="50" height="50" as="geometry" />
        </mxCell>
        <mxCell id="S-AW7ORlAw7sAJhm5qHH-159" value="11" style="text;html=1;align=center;verticalAlign=middle;resizable=0;points=[];autosize=1;strokeColor=none;fillColor=none;fontSize=18;fontFamily=Verdana;" vertex="1" parent="1">
          <mxGeometry x="290" y="2185" width="50" height="40" as="geometry" />
        </mxCell>
        <mxCell id="S-AW7ORlAw7sAJhm5qHH-160" value="9" style="text;html=1;align=center;verticalAlign=middle;resizable=0;points=[];autosize=1;strokeColor=none;fillColor=none;fontSize=18;fontFamily=Verdana;" vertex="1" parent="1">
          <mxGeometry x="305" y="2255" width="30" height="40" as="geometry" />
        </mxCell>
        <mxCell id="S-AW7ORlAw7sAJhm5qHH-161" value="7" style="text;html=1;align=center;verticalAlign=middle;resizable=0;points=[];autosize=1;strokeColor=none;fillColor=none;fontSize=18;fontFamily=Verdana;" vertex="1" parent="1">
          <mxGeometry x="305" y="2335" width="30" height="40" as="geometry" />
        </mxCell>
        <mxCell id="S-AW7ORlAw7sAJhm5qHH-162" value="4" style="text;html=1;align=center;verticalAlign=middle;resizable=0;points=[];autosize=1;strokeColor=none;fillColor=none;fontSize=18;fontFamily=Verdana;" vertex="1" parent="1">
          <mxGeometry x="300" y="2395" width="30" height="40" as="geometry" />
        </mxCell>
        <mxCell id="S-AW7ORlAw7sAJhm5qHH-163" style="edgeStyle=orthogonalEdgeStyle;rounded=0;orthogonalLoop=1;jettySize=auto;html=1;fontFamily=Verdana;fontSize=18;" edge="1" parent="1" target="S-AW7ORlAw7sAJhm5qHH-165">
          <mxGeometry relative="1" as="geometry">
            <mxPoint x="620" y="1630" as="sourcePoint" />
          </mxGeometry>
        </mxCell>
        <mxCell id="S-AW7ORlAw7sAJhm5qHH-164" style="edgeStyle=orthogonalEdgeStyle;rounded=0;orthogonalLoop=1;jettySize=auto;html=1;entryX=0.5;entryY=0;entryDx=0;entryDy=0;fontFamily=Verdana;fontSize=18;" edge="1" parent="1" source="S-AW7ORlAw7sAJhm5qHH-165" target="S-AW7ORlAw7sAJhm5qHH-167">
          <mxGeometry relative="1" as="geometry" />
        </mxCell>
        <mxCell id="S-AW7ORlAw7sAJhm5qHH-165" value="U" style="ellipse;whiteSpace=wrap;html=1;aspect=fixed;fontSize=18;fontStyle=1" vertex="1" parent="1">
          <mxGeometry x="595" y="1650" width="50" height="50" as="geometry" />
        </mxCell>
        <mxCell id="S-AW7ORlAw7sAJhm5qHH-196" style="edgeStyle=orthogonalEdgeStyle;rounded=0;orthogonalLoop=1;jettySize=auto;html=1;entryX=0.5;entryY=0;entryDx=0;entryDy=0;fontFamily=Helvetica;fontSize=18;fontColor=default;" edge="1" parent="1" source="S-AW7ORlAw7sAJhm5qHH-167" target="S-AW7ORlAw7sAJhm5qHH-193">
          <mxGeometry relative="1" as="geometry">
            <Array as="points">
              <mxPoint x="620" y="1800" />
              <mxPoint x="700" y="1800" />
            </Array>
          </mxGeometry>
        </mxCell>
        <mxCell id="S-AW7ORlAw7sAJhm5qHH-167" value="T" style="ellipse;whiteSpace=wrap;html=1;aspect=fixed;fontSize=18;fontStyle=1" vertex="1" parent="1">
          <mxGeometry x="595" y="1720" width="50" height="50" as="geometry" />
        </mxCell>
        <mxCell id="S-AW7ORlAw7sAJhm5qHH-169" value="9" style="text;html=1;align=center;verticalAlign=middle;resizable=0;points=[];autosize=1;strokeColor=none;fillColor=none;fontSize=18;fontFamily=Verdana;" vertex="1" parent="1">
          <mxGeometry x="625" y="1615" width="30" height="40" as="geometry" />
        </mxCell>
        <mxCell id="S-AW7ORlAw7sAJhm5qHH-170" value="7" style="text;html=1;align=center;verticalAlign=middle;resizable=0;points=[];autosize=1;strokeColor=none;fillColor=none;fontSize=18;fontFamily=Verdana;" vertex="1" parent="1">
          <mxGeometry x="625" y="1695" width="30" height="40" as="geometry" />
        </mxCell>
        <mxCell id="S-AW7ORlAw7sAJhm5qHH-172" style="edgeStyle=orthogonalEdgeStyle;rounded=0;orthogonalLoop=1;jettySize=auto;html=1;fontFamily=Verdana;fontSize=18;" edge="1" parent="1" target="S-AW7ORlAw7sAJhm5qHH-173">
          <mxGeometry relative="1" as="geometry">
            <mxPoint x="780" y="1310" as="sourcePoint" />
          </mxGeometry>
        </mxCell>
        <mxCell id="S-AW7ORlAw7sAJhm5qHH-173" value="L" style="ellipse;whiteSpace=wrap;html=1;aspect=fixed;fontSize=18;fontStyle=1" vertex="1" parent="1">
          <mxGeometry x="755" y="1350" width="50" height="50" as="geometry" />
        </mxCell>
        <mxCell id="S-AW7ORlAw7sAJhm5qHH-174" value="29" style="text;html=1;align=center;verticalAlign=middle;resizable=0;points=[];autosize=1;strokeColor=none;fillColor=none;fontSize=18;fontFamily=Verdana;" vertex="1" parent="1">
          <mxGeometry x="770" y="1315" width="50" height="40" as="geometry" />
        </mxCell>
        <mxCell id="S-AW7ORlAw7sAJhm5qHH-175" style="edgeStyle=orthogonalEdgeStyle;rounded=0;orthogonalLoop=1;jettySize=auto;html=1;entryX=0.5;entryY=0;entryDx=0;entryDy=0;fontFamily=Verdana;fontSize=18;" edge="1" parent="1" target="S-AW7ORlAw7sAJhm5qHH-177">
          <mxGeometry relative="1" as="geometry">
            <mxPoint x="780" y="1400" as="sourcePoint" />
          </mxGeometry>
        </mxCell>
        <mxCell id="S-AW7ORlAw7sAJhm5qHH-176" style="edgeStyle=orthogonalEdgeStyle;rounded=0;orthogonalLoop=1;jettySize=auto;html=1;entryX=0.5;entryY=0;entryDx=0;entryDy=0;fontFamily=Verdana;fontSize=18;" edge="1" parent="1" source="S-AW7ORlAw7sAJhm5qHH-177" target="S-AW7ORlAw7sAJhm5qHH-178">
          <mxGeometry relative="1" as="geometry" />
        </mxCell>
        <mxCell id="S-AW7ORlAw7sAJhm5qHH-177" value="V" style="ellipse;whiteSpace=wrap;html=1;aspect=fixed;fontSize=18;fontStyle=1" vertex="1" parent="1">
          <mxGeometry x="755" y="1425" width="50" height="50" as="geometry" />
        </mxCell>
        <mxCell id="S-AW7ORlAw7sAJhm5qHH-178" value="H" style="ellipse;whiteSpace=wrap;html=1;aspect=fixed;fontSize=18;fontStyle=1" vertex="1" parent="1">
          <mxGeometry x="755" y="1505" width="50" height="50" as="geometry" />
        </mxCell>
        <mxCell id="S-AW7ORlAw7sAJhm5qHH-179" value="12" style="text;html=1;align=center;verticalAlign=middle;resizable=0;points=[];autosize=1;strokeColor=none;fillColor=none;fontSize=18;fontFamily=Verdana;" vertex="1" parent="1">
          <mxGeometry x="770" y="1475" width="50" height="40" as="geometry" />
        </mxCell>
        <mxCell id="S-AW7ORlAw7sAJhm5qHH-180" value="16" style="text;html=1;align=center;verticalAlign=middle;resizable=0;points=[];autosize=1;strokeColor=none;fillColor=none;fontSize=18;fontFamily=Verdana;" vertex="1" parent="1">
          <mxGeometry x="770" y="1390" width="50" height="40" as="geometry" />
        </mxCell>
        <mxCell id="S-AW7ORlAw7sAJhm5qHH-181" value="U" style="ellipse;whiteSpace=wrap;html=1;aspect=fixed;fontSize=18;fontStyle=1" vertex="1" parent="1">
          <mxGeometry x="755" y="1575" width="50" height="50" as="geometry" />
        </mxCell>
        <mxCell id="S-AW7ORlAw7sAJhm5qHH-182" style="edgeStyle=orthogonalEdgeStyle;rounded=0;orthogonalLoop=1;jettySize=auto;html=1;entryX=0.5;entryY=0;entryDx=0;entryDy=0;fontFamily=Verdana;fontSize=18;" edge="1" parent="1" target="S-AW7ORlAw7sAJhm5qHH-181">
          <mxGeometry relative="1" as="geometry">
            <mxPoint x="780" y="1560" as="sourcePoint" />
            <mxPoint x="780" y="1590" as="targetPoint" />
          </mxGeometry>
        </mxCell>
        <mxCell id="S-AW7ORlAw7sAJhm5qHH-183" value="9" style="text;html=1;align=center;verticalAlign=middle;resizable=0;points=[];autosize=1;strokeColor=none;fillColor=none;fontSize=18;fontFamily=Verdana;" vertex="1" parent="1">
          <mxGeometry x="780" y="1545" width="30" height="40" as="geometry" />
        </mxCell>
        <mxCell id="S-AW7ORlAw7sAJhm5qHH-197" style="edgeStyle=orthogonalEdgeStyle;rounded=0;orthogonalLoop=1;jettySize=auto;html=1;entryX=0.5;entryY=0;entryDx=0;entryDy=0;fontFamily=Helvetica;fontSize=18;fontColor=default;" edge="1" parent="1" source="S-AW7ORlAw7sAJhm5qHH-184" target="S-AW7ORlAw7sAJhm5qHH-193">
          <mxGeometry relative="1" as="geometry">
            <Array as="points">
              <mxPoint x="860" y="1800" />
              <mxPoint x="700" y="1800" />
            </Array>
          </mxGeometry>
        </mxCell>
        <mxCell id="S-AW7ORlAw7sAJhm5qHH-184" value="U" style="ellipse;whiteSpace=wrap;html=1;aspect=fixed;fontSize=18;fontStyle=1" vertex="1" parent="1">
          <mxGeometry x="835" y="1645" width="50" height="50" as="geometry" />
        </mxCell>
        <mxCell id="S-AW7ORlAw7sAJhm5qHH-186" value="" style="endArrow=classic;html=1;rounded=0;fontFamily=Helvetica;fontSize=18;fontColor=default;entryX=0;entryY=0;entryDx=0;entryDy=0;exitX=0.5;exitY=1;exitDx=0;exitDy=0;" edge="1" parent="1" source="S-AW7ORlAw7sAJhm5qHH-181" target="S-AW7ORlAw7sAJhm5qHH-184">
          <mxGeometry width="50" height="50" relative="1" as="geometry">
            <mxPoint x="725" y="1700" as="sourcePoint" />
            <mxPoint x="775" y="1460" as="targetPoint" />
          </mxGeometry>
        </mxCell>
        <mxCell id="S-AW7ORlAw7sAJhm5qHH-187" value="" style="endArrow=classic;html=1;rounded=0;fontFamily=Helvetica;fontSize=18;fontColor=default;entryX=1;entryY=0;entryDx=0;entryDy=0;exitX=0.304;exitY=0.953;exitDx=0;exitDy=0;exitPerimeter=0;" edge="1" parent="1" source="S-AW7ORlAw7sAJhm5qHH-92" target="S-AW7ORlAw7sAJhm5qHH-184">
          <mxGeometry width="50" height="50" relative="1" as="geometry">
            <mxPoint x="725" y="1510" as="sourcePoint" />
            <mxPoint x="775" y="1460" as="targetPoint" />
          </mxGeometry>
        </mxCell>
        <mxCell id="S-AW7ORlAw7sAJhm5qHH-188" value="10" style="text;html=1;align=center;verticalAlign=middle;resizable=0;points=[];autosize=1;strokeColor=none;fillColor=none;fontSize=18;fontFamily=Helvetica;fontColor=default;" vertex="1" parent="1">
          <mxGeometry x="815" y="1610" width="40" height="40" as="geometry" />
        </mxCell>
        <mxCell id="S-AW7ORlAw7sAJhm5qHH-195" style="edgeStyle=orthogonalEdgeStyle;rounded=0;orthogonalLoop=1;jettySize=auto;html=1;entryX=0.5;entryY=0;entryDx=0;entryDy=0;fontFamily=Helvetica;fontSize=18;fontColor=default;" edge="1" parent="1" source="S-AW7ORlAw7sAJhm5qHH-190" target="S-AW7ORlAw7sAJhm5qHH-193">
          <mxGeometry relative="1" as="geometry" />
        </mxCell>
        <mxCell id="S-AW7ORlAw7sAJhm5qHH-190" value="M" style="ellipse;whiteSpace=wrap;html=1;aspect=fixed;fontSize=18;fontStyle=1" vertex="1" parent="1">
          <mxGeometry x="675" y="1720" width="50" height="50" as="geometry" />
        </mxCell>
        <mxCell id="S-AW7ORlAw7sAJhm5qHH-192" value="27" style="text;html=1;align=center;verticalAlign=middle;resizable=0;points=[];autosize=1;strokeColor=none;fillColor=none;fontSize=18;fontFamily=Helvetica;fontColor=default;" vertex="1" parent="1">
          <mxGeometry x="695" y="1675" width="40" height="40" as="geometry" />
        </mxCell>
        <mxCell id="S-AW7ORlAw7sAJhm5qHH-193" value="T" style="ellipse;whiteSpace=wrap;html=1;aspect=fixed;fontSize=18;fontStyle=1" vertex="1" parent="1">
          <mxGeometry x="675" y="1830" width="50" height="50" as="geometry" />
        </mxCell>
        <mxCell id="S-AW7ORlAw7sAJhm5qHH-198" value="8" style="text;html=1;align=center;verticalAlign=middle;resizable=0;points=[];autosize=1;strokeColor=none;fillColor=none;fontSize=18;fontFamily=Helvetica;fontColor=default;" vertex="1" parent="1">
          <mxGeometry x="700" y="1770" width="30" height="40" as="geometry" />
        </mxCell>
        <mxCell id="S-AW7ORlAw7sAJhm5qHH-424" style="edgeStyle=orthogonalEdgeStyle;rounded=0;orthogonalLoop=1;jettySize=auto;html=1;entryX=0.5;entryY=0;entryDx=0;entryDy=0;fontFamily=Helvetica;fontSize=18;fontColor=default;" edge="1" parent="1" source="S-AW7ORlAw7sAJhm5qHH-200" target="S-AW7ORlAw7sAJhm5qHH-423">
          <mxGeometry relative="1" as="geometry" />
        </mxCell>
        <mxCell id="S-AW7ORlAw7sAJhm5qHH-200" value="/" style="ellipse;whiteSpace=wrap;html=1;aspect=fixed;fontSize=18;fontStyle=1" vertex="1" parent="1">
          <mxGeometry x="-515" y="2365" width="50" height="50" as="geometry" />
        </mxCell>
        <mxCell id="S-AW7ORlAw7sAJhm5qHH-395" style="edgeStyle=orthogonalEdgeStyle;rounded=0;orthogonalLoop=1;jettySize=auto;html=1;entryX=0.5;entryY=0;entryDx=0;entryDy=0;fontFamily=Helvetica;fontSize=18;fontColor=default;" edge="1" parent="1" source="S-AW7ORlAw7sAJhm5qHH-204" target="S-AW7ORlAw7sAJhm5qHH-392">
          <mxGeometry relative="1" as="geometry">
            <Array as="points">
              <mxPoint x="-330" y="2715" />
              <mxPoint x="-170" y="2715" />
            </Array>
          </mxGeometry>
        </mxCell>
        <mxCell id="S-AW7ORlAw7sAJhm5qHH-204" value="(" style="ellipse;whiteSpace=wrap;html=1;aspect=fixed;fontSize=18;fontStyle=1" vertex="1" parent="1">
          <mxGeometry x="-355" y="2365" width="50" height="50" as="geometry" />
        </mxCell>
        <mxCell id="S-AW7ORlAw7sAJhm5qHH-390" style="edgeStyle=orthogonalEdgeStyle;rounded=0;orthogonalLoop=1;jettySize=auto;html=1;entryX=0.5;entryY=0;entryDx=0;entryDy=0;fontFamily=Helvetica;fontSize=18;fontColor=default;" edge="1" parent="1" source="S-AW7ORlAw7sAJhm5qHH-216" target="S-AW7ORlAw7sAJhm5qHH-385">
          <mxGeometry relative="1" as="geometry" />
        </mxCell>
        <mxCell id="S-AW7ORlAw7sAJhm5qHH-216" value="-" style="ellipse;whiteSpace=wrap;html=1;aspect=fixed;fontSize=18;fontStyle=1" vertex="1" parent="1">
          <mxGeometry x="-195" y="2365" width="50" height="50" as="geometry" />
        </mxCell>
        <mxCell id="S-AW7ORlAw7sAJhm5qHH-396" style="edgeStyle=orthogonalEdgeStyle;rounded=0;orthogonalLoop=1;jettySize=auto;html=1;entryX=0.5;entryY=0;entryDx=0;entryDy=0;fontFamily=Helvetica;fontSize=18;fontColor=default;" edge="1" parent="1" source="S-AW7ORlAw7sAJhm5qHH-224" target="S-AW7ORlAw7sAJhm5qHH-392">
          <mxGeometry relative="1" as="geometry">
            <Array as="points">
              <mxPoint x="-10" y="2715" />
              <mxPoint x="-170" y="2715" />
            </Array>
          </mxGeometry>
        </mxCell>
        <mxCell id="S-AW7ORlAw7sAJhm5qHH-224" value=")" style="ellipse;whiteSpace=wrap;html=1;aspect=fixed;fontSize=18;fontStyle=1" vertex="1" parent="1">
          <mxGeometry x="-35" y="2365" width="50" height="50" as="geometry" />
        </mxCell>
        <mxCell id="S-AW7ORlAw7sAJhm5qHH-417" style="edgeStyle=orthogonalEdgeStyle;rounded=0;orthogonalLoop=1;jettySize=auto;html=1;entryX=0.5;entryY=0;entryDx=0;entryDy=0;fontFamily=Helvetica;fontSize=18;fontColor=default;" edge="1" parent="1" source="S-AW7ORlAw7sAJhm5qHH-225" target="S-AW7ORlAw7sAJhm5qHH-411">
          <mxGeometry relative="1" as="geometry">
            <Array as="points">
              <mxPoint x="-730" y="2535" />
              <mxPoint x="-650" y="2535" />
            </Array>
          </mxGeometry>
        </mxCell>
        <mxCell id="S-AW7ORlAw7sAJhm5qHH-225" value="(" style="ellipse;whiteSpace=wrap;html=1;aspect=fixed;fontSize=18;fontStyle=1" vertex="1" parent="1">
          <mxGeometry x="-755" y="2365" width="50" height="50" as="geometry" />
        </mxCell>
        <mxCell id="S-AW7ORlAw7sAJhm5qHH-416" style="edgeStyle=orthogonalEdgeStyle;rounded=0;orthogonalLoop=1;jettySize=auto;html=1;entryX=0.5;entryY=0;entryDx=0;entryDy=0;fontFamily=Helvetica;fontSize=18;fontColor=default;" edge="1" parent="1" source="S-AW7ORlAw7sAJhm5qHH-226" target="S-AW7ORlAw7sAJhm5qHH-411">
          <mxGeometry relative="1" as="geometry" />
        </mxCell>
        <mxCell id="S-AW7ORlAw7sAJhm5qHH-226" value="A" style="ellipse;whiteSpace=wrap;html=1;aspect=fixed;fontSize=18;fontStyle=1" vertex="1" parent="1">
          <mxGeometry x="-675" y="2365" width="50" height="50" as="geometry" />
        </mxCell>
        <mxCell id="S-AW7ORlAw7sAJhm5qHH-418" style="edgeStyle=orthogonalEdgeStyle;rounded=0;orthogonalLoop=1;jettySize=auto;html=1;entryX=0.5;entryY=0;entryDx=0;entryDy=0;fontFamily=Helvetica;fontSize=18;fontColor=default;" edge="1" parent="1" source="S-AW7ORlAw7sAJhm5qHH-227" target="S-AW7ORlAw7sAJhm5qHH-411">
          <mxGeometry relative="1" as="geometry">
            <Array as="points">
              <mxPoint x="-570" y="2535" />
              <mxPoint x="-650" y="2535" />
            </Array>
          </mxGeometry>
        </mxCell>
        <mxCell id="S-AW7ORlAw7sAJhm5qHH-227" value=")" style="ellipse;whiteSpace=wrap;html=1;aspect=fixed;fontSize=18;fontStyle=1" vertex="1" parent="1">
          <mxGeometry x="-595" y="2365" width="50" height="50" as="geometry" />
        </mxCell>
        <mxCell id="S-AW7ORlAw7sAJhm5qHH-394" style="edgeStyle=orthogonalEdgeStyle;rounded=0;orthogonalLoop=1;jettySize=auto;html=1;entryX=0.5;entryY=0;entryDx=0;entryDy=0;fontFamily=Helvetica;fontSize=18;fontColor=default;" edge="1" parent="1" source="S-AW7ORlAw7sAJhm5qHH-240" target="S-AW7ORlAw7sAJhm5qHH-392">
          <mxGeometry relative="1" as="geometry">
            <Array as="points">
              <mxPoint x="-410" y="2715" />
              <mxPoint x="-170" y="2715" />
            </Array>
          </mxGeometry>
        </mxCell>
        <mxCell id="S-AW7ORlAw7sAJhm5qHH-240" value="V" style="ellipse;whiteSpace=wrap;html=1;aspect=fixed;fontSize=18;fontStyle=1" vertex="1" parent="1">
          <mxGeometry x="-435" y="2365" width="50" height="50" as="geometry" />
        </mxCell>
        <mxCell id="S-AW7ORlAw7sAJhm5qHH-388" style="edgeStyle=orthogonalEdgeStyle;rounded=0;orthogonalLoop=1;jettySize=auto;html=1;fontFamily=Helvetica;fontSize=18;fontColor=default;entryX=0.5;entryY=0;entryDx=0;entryDy=0;" edge="1" parent="1" source="S-AW7ORlAw7sAJhm5qHH-350" target="S-AW7ORlAw7sAJhm5qHH-386">
          <mxGeometry relative="1" as="geometry">
            <mxPoint x="-215" y="2565" as="targetPoint" />
            <Array as="points">
              <mxPoint x="-250" y="2545" />
              <mxPoint x="-170" y="2545" />
            </Array>
          </mxGeometry>
        </mxCell>
        <mxCell id="S-AW7ORlAw7sAJhm5qHH-350" value="A" style="ellipse;whiteSpace=wrap;html=1;aspect=fixed;fontSize=18;fontStyle=1" vertex="1" parent="1">
          <mxGeometry x="-275" y="2365" width="50" height="50" as="geometry" />
        </mxCell>
        <mxCell id="S-AW7ORlAw7sAJhm5qHH-389" style="edgeStyle=orthogonalEdgeStyle;rounded=0;orthogonalLoop=1;jettySize=auto;html=1;entryX=0.5;entryY=0;entryDx=0;entryDy=0;fontFamily=Helvetica;fontSize=18;fontColor=default;" edge="1" parent="1" source="S-AW7ORlAw7sAJhm5qHH-382" target="S-AW7ORlAw7sAJhm5qHH-386">
          <mxGeometry relative="1" as="geometry">
            <Array as="points">
              <mxPoint x="-90" y="2545" />
              <mxPoint x="-170" y="2545" />
            </Array>
          </mxGeometry>
        </mxCell>
        <mxCell id="S-AW7ORlAw7sAJhm5qHH-382" value="T" style="ellipse;whiteSpace=wrap;html=1;aspect=fixed;fontSize=18;fontStyle=1" vertex="1" parent="1">
          <mxGeometry x="-115" y="2365" width="50" height="50" as="geometry" />
        </mxCell>
        <mxCell id="S-AW7ORlAw7sAJhm5qHH-387" style="edgeStyle=orthogonalEdgeStyle;rounded=0;orthogonalLoop=1;jettySize=auto;html=1;entryX=0.5;entryY=0;entryDx=0;entryDy=0;fontFamily=Helvetica;fontSize=18;fontColor=default;" edge="1" parent="1" source="S-AW7ORlAw7sAJhm5qHH-385" target="S-AW7ORlAw7sAJhm5qHH-386">
          <mxGeometry relative="1" as="geometry" />
        </mxCell>
        <mxCell id="S-AW7ORlAw7sAJhm5qHH-385" value="Z" style="ellipse;whiteSpace=wrap;html=1;aspect=fixed;fontSize=18;fontStyle=1" vertex="1" parent="1">
          <mxGeometry x="-195" y="2455" width="50" height="50" as="geometry" />
        </mxCell>
        <mxCell id="S-AW7ORlAw7sAJhm5qHH-397" style="edgeStyle=orthogonalEdgeStyle;rounded=0;orthogonalLoop=1;jettySize=auto;html=1;entryX=0.5;entryY=0;entryDx=0;entryDy=0;fontFamily=Helvetica;fontSize=18;fontColor=default;" edge="1" parent="1" source="S-AW7ORlAw7sAJhm5qHH-398" target="S-AW7ORlAw7sAJhm5qHH-392">
          <mxGeometry relative="1" as="geometry" />
        </mxCell>
        <mxCell id="S-AW7ORlAw7sAJhm5qHH-386" value="A" style="ellipse;whiteSpace=wrap;html=1;aspect=fixed;fontSize=18;fontStyle=1" vertex="1" parent="1">
          <mxGeometry x="-195" y="2565" width="50" height="50" as="geometry" />
        </mxCell>
        <mxCell id="S-AW7ORlAw7sAJhm5qHH-391" value="6" style="text;html=1;align=center;verticalAlign=middle;resizable=0;points=[];autosize=1;strokeColor=none;fillColor=none;fontSize=18;fontFamily=Helvetica;fontColor=default;" vertex="1" parent="1">
          <mxGeometry x="-205" y="2510" width="30" height="40" as="geometry" />
        </mxCell>
        <mxCell id="S-AW7ORlAw7sAJhm5qHH-407" style="edgeStyle=orthogonalEdgeStyle;rounded=0;orthogonalLoop=1;jettySize=auto;html=1;entryX=0.5;entryY=0;entryDx=0;entryDy=0;fontFamily=Helvetica;fontSize=18;fontColor=default;" edge="1" parent="1" source="S-AW7ORlAw7sAJhm5qHH-392" target="S-AW7ORlAw7sAJhm5qHH-403">
          <mxGeometry relative="1" as="geometry" />
        </mxCell>
        <mxCell id="S-AW7ORlAw7sAJhm5qHH-392" value="F" style="ellipse;whiteSpace=wrap;html=1;aspect=fixed;fontSize=18;fontStyle=1" vertex="1" parent="1">
          <mxGeometry x="-195" y="2765" width="50" height="50" as="geometry" />
        </mxCell>
        <mxCell id="S-AW7ORlAw7sAJhm5qHH-399" value="" style="edgeStyle=orthogonalEdgeStyle;rounded=0;orthogonalLoop=1;jettySize=auto;html=1;entryX=0.5;entryY=0;entryDx=0;entryDy=0;fontFamily=Helvetica;fontSize=18;fontColor=default;" edge="1" parent="1" source="S-AW7ORlAw7sAJhm5qHH-386" target="S-AW7ORlAw7sAJhm5qHH-398">
          <mxGeometry relative="1" as="geometry">
            <mxPoint x="-170" y="2615" as="sourcePoint" />
            <mxPoint x="-170" y="2765" as="targetPoint" />
          </mxGeometry>
        </mxCell>
        <mxCell id="S-AW7ORlAw7sAJhm5qHH-398" value="B" style="ellipse;whiteSpace=wrap;html=1;aspect=fixed;fontSize=18;fontStyle=1" vertex="1" parent="1">
          <mxGeometry x="-195" y="2645" width="50" height="50" as="geometry" />
        </mxCell>
        <mxCell id="S-AW7ORlAw7sAJhm5qHH-400" value="2" style="text;html=1;align=center;verticalAlign=middle;resizable=0;points=[];autosize=1;strokeColor=none;fillColor=none;fontSize=18;fontFamily=Helvetica;fontColor=default;" vertex="1" parent="1">
          <mxGeometry x="-175" y="2610" width="30" height="40" as="geometry" />
        </mxCell>
        <mxCell id="S-AW7ORlAw7sAJhm5qHH-401" value="25" style="text;html=1;align=center;verticalAlign=middle;resizable=0;points=[];autosize=1;strokeColor=none;fillColor=none;fontSize=18;fontFamily=Helvetica;fontColor=default;" vertex="1" parent="1">
          <mxGeometry x="-175" y="2420" width="40" height="40" as="geometry" />
        </mxCell>
        <mxCell id="S-AW7ORlAw7sAJhm5qHH-402" value="15" style="text;html=1;align=center;verticalAlign=middle;resizable=0;points=[];autosize=1;strokeColor=none;fillColor=none;fontSize=18;fontFamily=Helvetica;fontColor=default;" vertex="1" parent="1">
          <mxGeometry x="-175" y="2730" width="40" height="40" as="geometry" />
        </mxCell>
        <mxCell id="S-AW7ORlAw7sAJhm5qHH-403" value="H" style="ellipse;whiteSpace=wrap;html=1;aspect=fixed;fontSize=18;fontStyle=1" vertex="1" parent="1">
          <mxGeometry x="-195" y="2835" width="50" height="50" as="geometry" />
        </mxCell>
        <mxCell id="S-AW7ORlAw7sAJhm5qHH-404" value="" style="edgeStyle=orthogonalEdgeStyle;rounded=0;orthogonalLoop=1;jettySize=auto;html=1;entryX=0.5;entryY=0;entryDx=0;entryDy=0;fontFamily=Helvetica;fontSize=18;fontColor=default;" edge="1" parent="1" source="S-AW7ORlAw7sAJhm5qHH-403" target="S-AW7ORlAw7sAJhm5qHH-405">
          <mxGeometry relative="1" as="geometry">
            <mxPoint x="-170" y="2885" as="sourcePoint" />
            <mxPoint x="-170" y="3035" as="targetPoint" />
          </mxGeometry>
        </mxCell>
        <mxCell id="S-AW7ORlAw7sAJhm5qHH-427" style="edgeStyle=orthogonalEdgeStyle;rounded=0;orthogonalLoop=1;jettySize=auto;html=1;entryX=0.5;entryY=0;entryDx=0;entryDy=0;fontFamily=Helvetica;fontSize=18;fontColor=default;" edge="1" parent="1" source="S-AW7ORlAw7sAJhm5qHH-405" target="S-AW7ORlAw7sAJhm5qHH-426">
          <mxGeometry relative="1" as="geometry">
            <Array as="points">
              <mxPoint x="-565" y="2935" />
            </Array>
          </mxGeometry>
        </mxCell>
        <mxCell id="S-AW7ORlAw7sAJhm5qHH-405" value="U" style="ellipse;whiteSpace=wrap;html=1;aspect=fixed;fontSize=18;fontStyle=1" vertex="1" parent="1">
          <mxGeometry x="-195" y="2915" width="50" height="50" as="geometry" />
        </mxCell>
        <mxCell id="S-AW7ORlAw7sAJhm5qHH-406" value="9" style="text;html=1;align=center;verticalAlign=middle;resizable=0;points=[];autosize=1;strokeColor=none;fillColor=none;fontSize=18;fontFamily=Helvetica;fontColor=default;" vertex="1" parent="1">
          <mxGeometry x="-175" y="2880" width="30" height="40" as="geometry" />
        </mxCell>
        <mxCell id="S-AW7ORlAw7sAJhm5qHH-408" value="11" style="text;html=1;align=center;verticalAlign=middle;resizable=0;points=[];autosize=1;strokeColor=none;fillColor=none;fontSize=18;fontFamily=Helvetica;fontColor=default;" vertex="1" parent="1">
          <mxGeometry x="-175" y="2810" width="40" height="40" as="geometry" />
        </mxCell>
        <mxCell id="S-AW7ORlAw7sAJhm5qHH-411" value="H" style="ellipse;whiteSpace=wrap;html=1;aspect=fixed;fontSize=18;fontStyle=1" vertex="1" parent="1">
          <mxGeometry x="-675" y="2575" width="50" height="50" as="geometry" />
        </mxCell>
        <mxCell id="S-AW7ORlAw7sAJhm5qHH-412" value="" style="edgeStyle=orthogonalEdgeStyle;rounded=0;orthogonalLoop=1;jettySize=auto;html=1;entryX=0.5;entryY=0;entryDx=0;entryDy=0;fontFamily=Helvetica;fontSize=18;fontColor=default;" edge="1" parent="1" source="S-AW7ORlAw7sAJhm5qHH-411" target="S-AW7ORlAw7sAJhm5qHH-413">
          <mxGeometry relative="1" as="geometry">
            <mxPoint x="-650" y="2625" as="sourcePoint" />
            <mxPoint x="-650" y="2775" as="targetPoint" />
          </mxGeometry>
        </mxCell>
        <mxCell id="S-AW7ORlAw7sAJhm5qHH-413" value="U" style="ellipse;whiteSpace=wrap;html=1;aspect=fixed;fontSize=18;fontStyle=1" vertex="1" parent="1">
          <mxGeometry x="-675" y="2655" width="50" height="50" as="geometry" />
        </mxCell>
        <mxCell id="S-AW7ORlAw7sAJhm5qHH-414" value="9" style="text;html=1;align=center;verticalAlign=middle;resizable=0;points=[];autosize=1;strokeColor=none;fillColor=none;fontSize=18;fontFamily=Helvetica;fontColor=default;" vertex="1" parent="1">
          <mxGeometry x="-655" y="2620" width="30" height="40" as="geometry" />
        </mxCell>
        <mxCell id="S-AW7ORlAw7sAJhm5qHH-419" value="14" style="text;html=1;align=center;verticalAlign=middle;resizable=0;points=[];autosize=1;strokeColor=none;fillColor=none;fontSize=18;fontFamily=Helvetica;fontColor=default;" vertex="1" parent="1">
          <mxGeometry x="-695" y="2505" width="40" height="40" as="geometry" />
        </mxCell>
        <mxCell id="S-AW7ORlAw7sAJhm5qHH-420" value="" style="edgeStyle=orthogonalEdgeStyle;rounded=0;orthogonalLoop=1;jettySize=auto;html=1;entryX=0.5;entryY=0;entryDx=0;entryDy=0;fontFamily=Helvetica;fontSize=18;fontColor=default;" edge="1" parent="1" target="S-AW7ORlAw7sAJhm5qHH-421">
          <mxGeometry relative="1" as="geometry">
            <mxPoint x="-650" y="2705" as="sourcePoint" />
            <mxPoint x="-650" y="2855" as="targetPoint" />
          </mxGeometry>
        </mxCell>
        <mxCell id="S-AW7ORlAw7sAJhm5qHH-429" style="edgeStyle=orthogonalEdgeStyle;rounded=0;orthogonalLoop=1;jettySize=auto;html=1;fontFamily=Helvetica;fontSize=18;fontColor=default;entryX=0.5;entryY=0;entryDx=0;entryDy=0;" edge="1" parent="1" source="S-AW7ORlAw7sAJhm5qHH-421" target="S-AW7ORlAw7sAJhm5qHH-426">
          <mxGeometry relative="1" as="geometry">
            <mxPoint x="-565" y="2955" as="targetPoint" />
            <Array as="points">
              <mxPoint x="-650" y="2935" />
              <mxPoint x="-565" y="2935" />
            </Array>
          </mxGeometry>
        </mxCell>
        <mxCell id="S-AW7ORlAw7sAJhm5qHH-421" value="T" style="ellipse;whiteSpace=wrap;html=1;aspect=fixed;fontSize=18;fontStyle=1" vertex="1" parent="1">
          <mxGeometry x="-675" y="2735" width="50" height="50" as="geometry" />
        </mxCell>
        <mxCell id="S-AW7ORlAw7sAJhm5qHH-422" value="7" style="text;html=1;align=center;verticalAlign=middle;resizable=0;points=[];autosize=1;strokeColor=none;fillColor=none;fontSize=18;fontFamily=Helvetica;fontColor=default;" vertex="1" parent="1">
          <mxGeometry x="-655" y="2700" width="30" height="40" as="geometry" />
        </mxCell>
        <mxCell id="S-AW7ORlAw7sAJhm5qHH-428" style="edgeStyle=orthogonalEdgeStyle;rounded=0;orthogonalLoop=1;jettySize=auto;html=1;entryX=0.5;entryY=0;entryDx=0;entryDy=0;fontFamily=Helvetica;fontSize=18;fontColor=default;" edge="1" parent="1" source="S-AW7ORlAw7sAJhm5qHH-423" target="S-AW7ORlAw7sAJhm5qHH-426">
          <mxGeometry relative="1" as="geometry">
            <Array as="points">
              <mxPoint x="-490" y="2935" />
              <mxPoint x="-565" y="2935" />
            </Array>
          </mxGeometry>
        </mxCell>
        <mxCell id="S-AW7ORlAw7sAJhm5qHH-423" value="M" style="ellipse;whiteSpace=wrap;html=1;aspect=fixed;fontSize=18;fontStyle=1" vertex="1" parent="1">
          <mxGeometry x="-515" y="2735" width="50" height="50" as="geometry" />
        </mxCell>
        <mxCell id="S-AW7ORlAw7sAJhm5qHH-425" value="28" style="text;html=1;align=center;verticalAlign=middle;resizable=0;points=[];autosize=1;strokeColor=none;fillColor=none;fontSize=18;fontFamily=Helvetica;fontColor=default;" vertex="1" parent="1">
          <mxGeometry x="-495" y="2700" width="40" height="40" as="geometry" />
        </mxCell>
        <mxCell id="S-AW7ORlAw7sAJhm5qHH-438" style="edgeStyle=orthogonalEdgeStyle;rounded=0;orthogonalLoop=1;jettySize=auto;html=1;fontFamily=Helvetica;fontSize=18;fontColor=default;" edge="1" parent="1" source="S-AW7ORlAw7sAJhm5qHH-426" target="S-AW7ORlAw7sAJhm5qHH-431">
          <mxGeometry relative="1" as="geometry" />
        </mxCell>
        <mxCell id="S-AW7ORlAw7sAJhm5qHH-426" value="T" style="ellipse;whiteSpace=wrap;html=1;aspect=fixed;fontSize=18;fontStyle=1" vertex="1" parent="1">
          <mxGeometry x="-590" y="2985" width="50" height="50" as="geometry" />
        </mxCell>
        <mxCell id="S-AW7ORlAw7sAJhm5qHH-430" value="8" style="text;html=1;align=center;verticalAlign=middle;resizable=0;points=[];autosize=1;strokeColor=none;fillColor=none;fontSize=18;fontFamily=Helvetica;fontColor=default;" vertex="1" parent="1">
          <mxGeometry x="-570" y="2905" width="30" height="40" as="geometry" />
        </mxCell>
        <mxCell id="S-AW7ORlAw7sAJhm5qHH-431" value="A" style="ellipse;whiteSpace=wrap;html=1;aspect=fixed;fontSize=18;fontStyle=1" vertex="1" parent="1">
          <mxGeometry x="-590" y="3055" width="50" height="50" as="geometry" />
        </mxCell>
        <mxCell id="S-AW7ORlAw7sAJhm5qHH-432" value="" style="edgeStyle=orthogonalEdgeStyle;rounded=0;orthogonalLoop=1;jettySize=auto;html=1;entryX=0.5;entryY=0;entryDx=0;entryDy=0;fontFamily=Helvetica;fontSize=18;fontColor=default;" edge="1" parent="1" source="S-AW7ORlAw7sAJhm5qHH-431" target="S-AW7ORlAw7sAJhm5qHH-433">
          <mxGeometry relative="1" as="geometry">
            <mxPoint x="-565" y="3105" as="sourcePoint" />
            <mxPoint x="-565" y="3255" as="targetPoint" />
          </mxGeometry>
        </mxCell>
        <mxCell id="S-AW7ORlAw7sAJhm5qHH-433" value="B" style="ellipse;whiteSpace=wrap;html=1;aspect=fixed;fontSize=18;fontStyle=1" vertex="1" parent="1">
          <mxGeometry x="-590" y="3135" width="50" height="50" as="geometry" />
        </mxCell>
        <mxCell id="S-AW7ORlAw7sAJhm5qHH-434" value="2" style="text;html=1;align=center;verticalAlign=middle;resizable=0;points=[];autosize=1;strokeColor=none;fillColor=none;fontSize=18;fontFamily=Helvetica;fontColor=default;" vertex="1" parent="1">
          <mxGeometry x="-570" y="3100" width="30" height="40" as="geometry" />
        </mxCell>
        <mxCell id="S-AW7ORlAw7sAJhm5qHH-435" value="" style="edgeStyle=orthogonalEdgeStyle;rounded=0;orthogonalLoop=1;jettySize=auto;html=1;entryX=0.5;entryY=0;entryDx=0;entryDy=0;fontFamily=Helvetica;fontSize=18;fontColor=default;" edge="1" parent="1" target="S-AW7ORlAw7sAJhm5qHH-436">
          <mxGeometry relative="1" as="geometry">
            <mxPoint x="-565" y="3185" as="sourcePoint" />
            <mxPoint x="-565" y="3335" as="targetPoint" />
          </mxGeometry>
        </mxCell>
        <mxCell id="S-AW7ORlAw7sAJhm5qHH-436" value="S" style="ellipse;whiteSpace=wrap;html=1;aspect=fixed;fontSize=18;fontStyle=1" vertex="1" parent="1">
          <mxGeometry x="-590" y="3215" width="50" height="50" as="geometry" />
        </mxCell>
        <mxCell id="S-AW7ORlAw7sAJhm5qHH-437" value="1" style="text;html=1;align=center;verticalAlign=middle;resizable=0;points=[];autosize=1;strokeColor=none;fillColor=none;fontSize=18;fontFamily=Helvetica;fontColor=default;" vertex="1" parent="1">
          <mxGeometry x="-570" y="3180" width="30" height="40" as="geometry" />
        </mxCell>
        <mxCell id="S-AW7ORlAw7sAJhm5qHH-439" value="4" style="text;html=1;align=center;verticalAlign=middle;resizable=0;points=[];autosize=1;strokeColor=none;fillColor=none;fontSize=18;fontFamily=Helvetica;fontColor=default;" vertex="1" parent="1">
          <mxGeometry x="-565" y="3030" width="30" height="40" as="geometry" />
        </mxCell>
      </root>
    </mxGraphModel>
  </diagram>
</mxfile>
